<svg width="230" height="160" viewBox="0 0 230 160" fill="none" xmlns="http://www.w3.org/2000/svg">
<g clip-path="url(#clip0_4846_15825)">
<path d="M149.17 135.73L20.2697 136.92C14.2497 136.92 9.29967 131.83 8.99967 125.35L5.49967 47.62C5.18967 40.68 10.3197 34.87 16.7697 34.87H144.78C150.8 34.87 154 37.57 154.3 44.05L157.81 126.33C158.12 133.27 155.63 135.75 149.18 135.75L149.17 135.73Z" fill="#FF9615"/>
<path d="M147.52 131.35H24.4099C19.8399 131.35 16.0699 127.58 15.8499 122.79L12.4099 48.49C12.1699 43.35 16.0699 39.05 20.9699 39.05H143.89C147.45 39.05 150.38 41.98 150.55 45.71L154.18 124.01C154.37 128 151.33 131.35 147.52 131.35Z" fill="#F9F6F2"/>
<path d="M185.14 106.71C183.13 109.43 181.31 113.12 177.84 114.86C177.74 114.92 177.48 115.05 177.39 115.1C177.29 115.16 176.75 115.39 176.53 115.44C175.34 115.72 174.74 115.54 174.3 115.47C171.94 114.86 170.03 113.2 168.3 111.91C164.09 108.58 160.15 104.81 156.22 101.36L159.97 96.65C162.21 98.37 164.18 100 166.27 101.64C169.37 103.97 172.51 106.73 175.9 108.34C175.94 108.35 175.93 108.34 175.82 108.31C175.7 108.31 175.44 108.16 174.57 108.36C174.45 108.39 174.31 108.44 174.19 108.49C174.09 108.53 173.87 108.65 173.94 108.61C174.08 108.51 174.25 108.42 174.38 108.31C176.23 106.87 177.05 104.27 178.58 102.12L185.13 106.73L185.14 106.71Z" fill="#FDBE9C"/>
<path d="M223.879 136.92L223.409 101.91L215.819 102.69L219.379 136.92H223.879Z" fill="#FDBE9C"/>
<path d="M202.99 79.08C202.99 79.08 208.779 78.87 210.429 78.58C212.989 78.13 216.199 76.49 216.559 73.91C217.419 67.89 213.509 52.9 213.509 52.9L203.499 54.41L202.979 79.08H202.99Z" fill="#6B4132"/>
<path d="M197.9 79.08L192.18 78.85C189.59 78.65 186.16 77.92 184.88 75.65C183.26 72.76 183.98 56.31 183.98 56.31L194.05 55.28L197.9 79.08Z" fill="#6B4132"/>
<path d="M203.529 68.47L194.839 75.12C194.839 75.12 195.199 78.28 194.739 79.08" fill="#F4937C"/>
<path d="M201.73 56.77L197.33 61.63C194.48 64.78 189.62 65.02 186.47 62.15C183.33 59.29 183.09 54.41 185.95 51.26L190.35 46.4C193.2 43.25 198.06 43.01 201.21 45.88C204.35 48.74 204.59 53.62 201.73 56.77Z" fill="#6B4132"/>
<path d="M203.53 67.69V78.59L194.89 75.66L195.06 71.99L203.53 67.69Z" fill="#F4937C"/>
<path d="M194.455 75.105C190.297 74.9953 187.007 71.5274 187.116 67.3689L187.372 57.6823C187.481 53.5237 190.949 50.2339 195.108 50.3436L196.617 50.3834C200.776 50.493 204.066 53.9609 203.956 58.1194L203.74 66.2966C203.609 71.2849 199.443 75.2365 194.455 75.105Z" fill="#FDBE9C"/>
<path d="M195.375 62.3045C195.389 61.7525 195.106 61.2972 194.741 61.2876C194.377 61.2781 194.07 61.7179 194.055 62.27C194.041 62.8221 194.325 63.2774 194.689 63.2869C195.053 63.2965 195.361 62.8566 195.375 62.3045Z" fill="#6B4132"/>
<path d="M194.899 61.56C195.579 61.77 196.059 62.15 196.169 61.8C196.279 61.45 195.809 61 195.119 60.79C194.429 60.58 193.799 60.69 193.689 61.04C193.579 61.39 194.209 61.35 194.899 61.56Z" fill="#6B4132"/>
<path d="M189.22 63.6426C189.576 63.565 189.769 63.0647 189.652 62.5251C189.534 61.9854 189.15 61.6108 188.794 61.6883C188.438 61.7659 188.245 62.2662 188.362 62.8058C188.48 63.3455 188.864 63.7201 189.22 63.6426Z" fill="#6B4132"/>
<path d="M188.68 62C188.05 62.34 187.65 62.8 187.48 62.48C187.31 62.16 187.69 61.63 188.32 61.29C188.95 60.95 189.6 60.94 189.77 61.27C189.94 61.6 189.31 61.67 188.68 62.01V62Z" fill="#6B4132"/>
<path d="M193.93 69.36C193.93 69.36 191.04 70.35 189.62 69.1" stroke="#F4937C" stroke-width="0.86" stroke-miterlimit="10" stroke-linecap="round"/>
<path d="M191.96 65.97C191.96 65.97 189.49 66.2 189.27 65.37C188.85 65.76 188.94 66.45 189.86 66.76C190.28 66.9 191.67 66.74 191.96 65.97Z" fill="#F4937C"/>
<path d="M196.62 58.42L202.28 61.7C205.96 63.83 210.66 62.57 212.78 58.88C214.9 55.19 213.64 50.48 209.97 48.35L204.31 45.07C200.63 42.94 195.93 44.2 193.81 47.89C191.69 51.58 192.95 56.29 196.62 58.42Z" fill="#6B4132"/>
<path d="M204.72 68.51C206.31 68.51 207.6 67.2161 207.6 65.62C207.6 64.0239 206.31 62.73 204.72 62.73C203.129 62.73 201.84 64.0239 201.84 65.62C201.84 67.2161 203.129 68.51 204.72 68.51Z" fill="#FDBE9C"/>
<path d="M177.88 99H219.81V88.1C219.81 85.87 218.25 83.94 216.08 83.47L204.04 80.89H194.68L186.61 82.81C183.72 83.29 181.39 85.43 180.65 88.27L177.87 98.99L177.88 99Z" fill="#FF9615"/>
<path d="M204.309 69.25C204.74 69.25 205.089 68.9008 205.089 68.47C205.089 68.0392 204.74 67.69 204.309 67.69C203.879 67.69 203.529 68.0392 203.529 68.47C203.529 68.9008 203.879 69.25 204.309 69.25Z" fill="white"/>
<path d="M203.53 78.59C203.53 78.59 203.74 80.08 204.04 80.56C204.04 80.56 201.19 88.22 197.13 87.97C197.13 87.97 194.22 87.12 194.74 80.25C194.74 80.25 194.9 78.36 194.89 75.66L203.53 78.59Z" fill="#FDBE9C"/>
<path d="M219.059 85.55C219.059 85.55 223.399 96.45 225.269 104.18C225.269 104.68 224.469 104.95 223.889 105.21C220.729 106.64 218.109 106.75 216.709 106.53C214.899 106.25 214.309 105.26 214.309 105.26L213.819 97.93L219.069 85.55H219.059Z" fill="#FF9615"/>
<path d="M182.66 127.26H215.5V96.45H182.66V127.26Z" fill="#FF9615"/>
<path d="M203.83 62.88C203.83 62.88 202.99 63.33 202.95 63.92C202.91 64.51 202.05 64.9 201.99 63.92C201.93 62.94 201 61.21 200.65 60.76C200.3 60.31 204.13 60.55 204.13 60.55L203.84 62.88H203.83Z" fill="#6B4132"/>
<path d="M197.169 60.42C197.169 60.42 196.469 59.73 195.309 59.37C194.629 59.16 193.739 59.23 193.739 59.23" stroke="#6B4132" stroke-width="0.64" stroke-miterlimit="10" stroke-linecap="round"/>
<path d="M190.479 59.02C190.479 59.02 189.519 58.84 188.359 59.2C187.679 59.41 186.979 59.97 186.979 59.97" stroke="#6B4132" stroke-width="0.64" stroke-miterlimit="10" stroke-linecap="round"/>
<path d="M217.869 136.92C216.819 124.17 215.499 108.84 215.499 108.84L213.809 82.98L205.089 80.89C205.089 80.89 201.719 90.41 197.119 90.41C192.519 90.41 193.579 81.15 193.579 81.15L187.359 82.37C187.359 82.37 185.669 87 185.339 88.92C183.779 98.05 181.599 120.92 179.899 136.93H217.859L217.869 136.92Z" fill="#685959"/>
<path d="M219.38 136.92C217.99 127.79 216.09 115.7 216.09 115.7L217.87 136.92H219.38Z" fill="#3E3837"/>
<path d="M187.41 100.2H194.27V95.9H187.41V100.2Z" fill="white"/>
<path d="M177.88 99L176.34 104.57C176.34 104.57 178.37 107.5 183.17 105.81L184.09 97.41L177.89 99H177.88Z" fill="#FF9615"/>
<path d="M197.13 87.97L201.36 90.81C201.36 90.81 206.62 86.82 205.8 81.07L204.03 80.56C204.03 80.56 202.74 86.02 197.12 87.97H197.13Z" fill="#FF9615"/>
<path d="M194.68 80.89L193.17 81.23C193.17 81.23 191.23 87.63 193.4 90.42L197.13 87.97C197.13 87.97 194.46 85.79 194.68 80.89Z" fill="#FF9615"/>
<path d="M199.52 89.57L197.13 87.97L194.89 89.44C194.89 89.44 196.26 92 199.52 89.57Z" fill="#E7751B"/>
<path d="M140.96 86.52L23.8503 85.69C22.2903 85.68 21.0203 84.37 21.0003 82.74L20.7903 68.33C20.7703 66.65 22.0603 65.28 23.6603 65.28L140.98 65.74C142.53 65.74 143.79 67.03 143.84 68.64V83.42C143.89 85.12 142.58 86.53 140.95 86.52H140.96Z" fill="white"/>
<path d="M49.8495 86.4H48.0595L47.7695 65.16H49.5495L49.8495 86.4Z" fill="#F9F6F2"/>
<path d="M78.2402 86.4H76.4501L76.1602 65.16H77.9402L78.2402 86.4Z" fill="#F9F6F2"/>
<path d="M106.86 86.4H105.08L104.78 65.16H106.57L106.86 86.4Z" fill="#F9F6F2"/>
<path d="M34.05 77.04H33.23V78.37H32.28V77.04H29.5V76.29L32.28 72.28H33.23V76.24H34.05V77.05V77.04ZM32.28 76.23V74.71C32.28 74.17 32.29 73.72 32.32 73.38H32.29C32.21 73.56 32.09 73.78 31.92 74.05L30.41 76.24H32.28V76.23Z" fill="#666666"/>
<path d="M38.6896 75.32C38.6896 76.37 38.5196 77.16 38.1796 77.67C37.8396 78.18 37.3196 78.44 36.6196 78.44C35.9196 78.44 35.4296 78.18 35.0796 77.65C34.7296 77.12 34.5596 76.35 34.5596 75.32C34.5596 74.25 34.7296 73.46 35.0696 72.95C35.4096 72.44 35.9296 72.19 36.6196 72.19C37.3096 72.19 37.8096 72.46 38.1596 72.99C38.5096 73.52 38.6796 74.3 38.6796 75.32H38.6896ZM35.5496 75.32C35.5496 76.15 35.6396 76.74 35.8096 77.09C35.9796 77.44 36.2496 77.62 36.6296 77.62C37.0096 77.62 37.2796 77.44 37.4496 77.08C37.6196 76.72 37.7096 76.13 37.7096 75.31C37.7096 74.49 37.6196 73.91 37.4496 73.54C37.2796 73.18 36.9996 72.99 36.6296 72.99C36.2596 72.99 35.9796 73.17 35.8096 73.53C35.6396 73.89 35.5496 74.48 35.5496 75.31V75.32Z" fill="#666666"/>
<path d="M60.7596 74.65C61.3696 74.65 61.8596 74.81 62.2096 75.14C62.5596 75.47 62.7496 75.91 62.7496 76.47C62.7496 77.12 62.5496 77.63 62.1396 77.99C61.7296 78.35 61.1596 78.54 60.4096 78.54C59.7296 78.54 59.1996 78.43 58.8096 78.21V77.33C59.0296 77.46 59.2896 77.56 59.5796 77.62C59.8696 77.69 60.1396 77.72 60.3896 77.72C60.8296 77.72 61.1696 77.62 61.3996 77.43C61.6296 77.23 61.7396 76.95 61.7396 76.57C61.7396 75.84 61.2796 75.48 60.3496 75.48C60.2196 75.48 60.0596 75.49 59.8696 75.52C59.6796 75.55 59.5096 75.58 59.3696 75.61L58.9296 75.35L59.1596 72.38H62.3196V73.25H60.0196L59.8796 74.75C59.9796 74.73 60.0996 74.71 60.2396 74.69C60.3796 74.67 60.5496 74.66 60.7496 74.66L60.7596 74.65Z" fill="#666666"/>
<path d="M67.6798 75.41C67.6798 76.46 67.5098 77.25 67.1698 77.76C66.8298 78.27 66.3098 78.53 65.6098 78.53C64.9098 78.53 64.4198 78.27 64.0698 77.74C63.7198 77.21 63.5498 76.44 63.5498 75.41C63.5498 74.34 63.7198 73.55 64.0598 73.04C64.3998 72.53 64.9198 72.28 65.6098 72.28C66.2998 72.28 66.7998 72.55 67.1498 73.08C67.4998 73.61 67.6698 74.39 67.6698 75.41H67.6798ZM64.5398 75.41C64.5398 76.24 64.6298 76.83 64.7998 77.18C64.9698 77.53 65.2398 77.71 65.6198 77.71C65.9998 77.71 66.2698 77.53 66.4398 77.17C66.6098 76.81 66.6998 76.22 66.6998 75.4C66.6998 74.58 66.6098 74 66.4398 73.63C66.2698 73.27 65.9898 73.08 65.6198 73.08C65.2498 73.08 64.9698 73.26 64.7998 73.62C64.6298 73.98 64.5398 74.57 64.5398 75.4V75.41Z" fill="#666666"/>
<path d="M23.3398 93.79H24.5798C25.1598 93.79 25.5798 93.88 25.8498 94.05C26.1098 94.22 26.2398 94.5 26.2398 94.88C26.2398 95.14 26.1698 95.36 26.0198 95.52C25.8698 95.69 25.6598 95.8 25.3798 95.85V95.88C26.0498 95.99 26.3798 96.34 26.3798 96.93C26.3798 97.32 26.2498 97.63 25.9798 97.85C25.7098 98.07 25.3398 98.18 24.8698 98.18H23.3398V93.79ZM23.8498 95.67H24.6898C25.0498 95.67 25.3098 95.61 25.4698 95.5C25.6298 95.39 25.7098 95.2 25.7098 94.93C25.7098 94.68 25.6198 94.51 25.4498 94.4C25.2698 94.29 24.9898 94.24 24.6098 94.24H23.8598V95.68L23.8498 95.67ZM23.8498 96.1V97.74H24.7698C25.1198 97.74 25.3898 97.67 25.5698 97.53C25.7498 97.39 25.8398 97.18 25.8398 96.89C25.8398 96.62 25.7498 96.42 25.5698 96.29C25.3898 96.16 25.1098 96.1 24.7298 96.1H23.8598H23.8498Z" fill="#494848"/>
<path d="M29.4796 95.32H28.4096V98.19H27.9096V95.32H26.8496V94.89H29.4796V95.32Z" fill="#494848"/>
<path d="M30.6603 97.47L30.7003 97.54C30.6503 97.74 30.5703 97.97 30.4703 98.24C30.3703 98.51 30.2703 98.75 30.1603 98.98H29.7803C29.8303 98.77 29.8903 98.51 29.9603 98.21C30.0303 97.91 30.0703 97.66 30.1003 97.47H30.6503H30.6603Z" fill="#494848"/>
<path d="M35.8998 98.19H33.0098V97.76L34.1698 96.6C34.5198 96.24 34.7498 95.99 34.8698 95.84C34.9898 95.69 35.0698 95.54 35.1198 95.39C35.1798 95.25 35.1998 95.09 35.1998 94.92C35.1998 94.69 35.1298 94.5 34.9898 94.36C34.8498 94.22 34.6498 94.15 34.3998 94.15C34.2198 94.15 34.0398 94.18 33.8798 94.24C33.7198 94.3 33.5298 94.41 33.3298 94.57L33.0698 94.23C33.4698 93.89 33.9198 93.73 34.3898 93.73C34.7998 93.73 35.1298 93.84 35.3598 94.05C35.5898 94.26 35.7098 94.55 35.7098 94.9C35.7098 95.18 35.6298 95.45 35.4798 95.73C35.3298 96.01 35.0298 96.35 34.5998 96.76L33.6398 97.7V97.72H35.8998V98.18V98.19Z" fill="#494848"/>
<path d="M39.4403 95.99C39.4403 96.75 39.3203 97.32 39.0803 97.69C38.8403 98.06 38.4703 98.25 37.9803 98.25C37.4903 98.25 37.1503 98.06 36.9003 97.67C36.6503 97.28 36.5303 96.72 36.5303 95.98C36.5303 95.24 36.6503 94.65 36.8903 94.28C37.1303 93.91 37.4903 93.72 37.9803 93.72C38.4703 93.72 38.8203 93.91 39.0703 94.3C39.3203 94.69 39.4403 95.25 39.4403 95.98V95.99ZM37.0403 95.99C37.0403 96.63 37.1203 97.09 37.2703 97.39C37.4203 97.68 37.6603 97.83 37.9903 97.83C38.3203 97.83 38.5603 97.68 38.7103 97.39C38.8603 97.1 38.9303 96.63 38.9303 96C38.9303 95.37 38.8603 94.91 38.7103 94.61C38.5603 94.32 38.3203 94.17 37.9903 94.17C37.6603 94.17 37.4203 94.32 37.2703 94.6C37.1203 94.89 37.0403 95.35 37.0403 95.99Z" fill="#494848"/>
<path d="M43.2002 98.25C42.7202 98.25 42.3502 98.1 42.0902 97.81C41.8302 97.52 41.7002 97.1 41.7002 96.56C41.7002 96.02 41.8302 95.58 42.1002 95.28C42.3702 94.98 42.7402 94.83 43.2302 94.83C43.3902 94.83 43.5502 94.85 43.7102 94.88C43.8702 94.91 43.9902 94.95 44.0802 95L43.9302 95.42C43.8202 95.38 43.7002 95.34 43.5702 95.31C43.4402 95.28 43.3202 95.27 43.2202 95.27C42.5502 95.27 42.2202 95.7 42.2202 96.55C42.2202 96.95 42.3002 97.26 42.4602 97.48C42.6202 97.7 42.8702 97.8 43.1902 97.8C43.4602 97.8 43.7502 97.74 44.0302 97.62V98.06C43.8102 98.17 43.5302 98.23 43.2002 98.23V98.25Z" fill="#494848"/>
<path d="M46.1999 98.25C45.7099 98.25 45.3299 98.1 45.0499 97.8C44.7699 97.5 44.6299 97.09 44.6299 96.56C44.6299 96.03 44.7599 95.61 45.0199 95.29C45.2799 94.98 45.6299 94.82 46.0699 94.82C46.4799 94.82 46.8099 94.96 47.0499 95.23C47.2899 95.5 47.4099 95.86 47.4099 96.3V96.62H45.1399C45.1399 97.01 45.2499 97.3 45.4299 97.5C45.6199 97.7 45.8799 97.8 46.2099 97.8C46.5599 97.8 46.9199 97.73 47.2599 97.58V98.03C47.0799 98.11 46.9199 98.16 46.7599 98.19C46.5999 98.22 46.4099 98.24 46.1899 98.24L46.1999 98.25ZM46.0599 95.25C45.7999 95.25 45.5799 95.34 45.4299 95.51C45.2699 95.68 45.1799 95.92 45.1499 96.22H46.8699C46.8699 95.91 46.7999 95.66 46.6599 95.5C46.5199 95.34 46.3199 95.25 46.0599 95.25Z" fill="#494848"/>
<path d="M48.7598 94.89V96.27H50.6098V94.89H51.1098V98.18H50.6098V96.69H48.7598V98.18H48.2598V94.89H48.7598Z" fill="#494848"/>
<path d="M54.3898 95.32H53.3198V98.19H52.8198V95.32H51.7598V94.89H54.3898V95.32Z" fill="#494848"/>
<path d="M55.2001 98.19H54.6201L55.5701 96.8C55.3201 96.74 55.1201 96.63 54.9901 96.47C54.8601 96.31 54.7901 96.11 54.7901 95.86C54.7901 95.56 54.8901 95.32 55.0901 95.15C55.2901 94.98 55.5701 94.89 55.9401 94.89H57.4101V98.18H56.9101V96.86H56.0801L55.2201 98.18L55.2001 98.19ZM55.2601 95.87C55.2601 96.25 55.5401 96.44 56.0901 96.44H56.8901V95.33H55.9901C55.5101 95.33 55.2601 95.51 55.2601 95.87Z" fill="#494848"/>
<path d="M58.29 96.21C58.29 95.49 58.4 94.93 58.61 94.52C58.82 94.12 59.16 93.86 59.62 93.76C60.19 93.64 60.7 93.54 61.13 93.46L61.22 93.9C60.52 94.02 60.03 94.11 59.73 94.18C59.44 94.25 59.22 94.4 59.08 94.65C58.93 94.9 58.85 95.23 58.84 95.66H58.88C59 95.49 59.16 95.36 59.36 95.26C59.56 95.16 59.76 95.12 59.98 95.12C60.38 95.12 60.7 95.25 60.93 95.51C61.16 95.77 61.27 96.14 61.27 96.6C61.27 97.11 61.14 97.52 60.88 97.81C60.62 98.1 60.25 98.24 59.78 98.24C59.31 98.24 58.95 98.06 58.69 97.71C58.43 97.36 58.3 96.85 58.3 96.21H58.29ZM59.82 97.83C60.43 97.83 60.74 97.44 60.74 96.66C60.74 95.88 60.46 95.54 59.91 95.54C59.76 95.54 59.61 95.57 59.47 95.63C59.33 95.69 59.2 95.78 59.08 95.88C58.96 95.98 58.87 96.09 58.81 96.2C58.81 96.73 58.89 97.13 59.06 97.4C59.23 97.68 59.48 97.81 59.83 97.81L59.82 97.83Z" fill="#494848"/>
<path d="M63.6601 98.25C63.4501 98.25 63.2501 98.21 63.0701 98.13C62.8901 98.05 62.7401 97.93 62.6201 97.76H62.5801C62.6001 97.95 62.6201 98.14 62.6201 98.31V99.67H62.1201V94.9H62.5301L62.6001 95.35H62.6201C62.7501 95.17 62.9001 95.04 63.0701 94.96C63.2401 94.88 63.4401 94.84 63.6601 94.84C64.1001 94.84 64.4301 94.99 64.6701 95.29C64.9101 95.59 65.0301 96.01 65.0301 96.55C65.0301 97.09 64.9101 97.51 64.6701 97.81C64.4301 98.11 64.0901 98.26 63.6601 98.26V98.25ZM63.5901 95.26C63.2501 95.26 63.0101 95.35 62.8601 95.54C62.7101 95.73 62.6301 96.02 62.6301 96.43V96.54C62.6301 97 62.7101 97.33 62.8601 97.53C63.0101 97.73 63.2601 97.83 63.6001 97.83C63.8801 97.83 64.1101 97.71 64.2701 97.48C64.4301 97.25 64.5101 96.93 64.5101 96.53C64.5101 96.13 64.4301 95.8 64.2701 95.58C64.1101 95.36 63.8801 95.25 63.5901 95.25V95.26Z" fill="#494848"/>
<path d="M66.0595 98.19H65.4795L66.4295 96.8C66.1795 96.74 65.9795 96.63 65.8495 96.47C65.7195 96.31 65.6495 96.11 65.6495 95.86C65.6495 95.56 65.7495 95.32 65.9495 95.15C66.1495 94.98 66.4295 94.89 66.7995 94.89H68.2695V98.18H67.7695V96.86H66.9395L66.0795 98.18L66.0595 98.19ZM66.1195 95.87C66.1195 96.25 66.3995 96.44 66.9495 96.44H67.7495V95.33H66.8495C66.3695 95.33 66.1195 95.51 66.1195 95.87Z" fill="#494848"/>
<path d="M73.5901 95.72C73.5901 95.93 73.5302 96.1 73.4102 96.21C73.2902 96.32 73.1102 96.4 72.8902 96.43V96.46C73.1702 96.5 73.3802 96.58 73.5002 96.71C73.6302 96.84 73.6902 97.01 73.6902 97.23C73.6902 97.54 73.5802 97.77 73.3502 97.94C73.1202 98.11 72.8002 98.19 72.3602 98.19H70.9102V94.9H72.3602C73.1802 94.9 73.5901 95.18 73.5901 95.73V95.72ZM73.1002 95.77C73.1002 95.61 73.0402 95.5 72.9102 95.43C72.7902 95.36 72.6002 95.33 72.3502 95.33H71.4102V96.26H72.2502C72.5602 96.26 72.7802 96.22 72.9002 96.15C73.0202 96.08 73.0901 95.95 73.0901 95.78L73.1002 95.77ZM73.1902 97.2C73.1902 97.02 73.1202 96.89 72.9902 96.81C72.8602 96.73 72.6302 96.69 72.3202 96.69H71.4202V97.77H72.3401C72.9201 97.77 73.2001 97.58 73.2001 97.2H73.1902Z" fill="#494848"/>
<path d="M77.6398 98.19H77.1498V95.06C77.1498 94.8 77.1498 94.55 77.1698 94.32C77.1298 94.36 77.0798 94.41 77.0298 94.45C76.9798 94.49 76.7398 94.69 76.3098 95.04L76.0498 94.7L77.2098 93.8H77.6298V98.19H77.6398Z" fill="#494848"/>
<path d="M82.1996 98.19H79.3096V97.76L80.4696 96.6C80.8196 96.24 81.0496 95.99 81.1696 95.84C81.2896 95.69 81.3696 95.54 81.4196 95.39C81.4796 95.25 81.4996 95.09 81.4996 94.92C81.4996 94.69 81.4296 94.5 81.2896 94.36C81.1496 94.22 80.9496 94.15 80.6996 94.15C80.5196 94.15 80.3396 94.18 80.1796 94.24C80.0196 94.3 79.8296 94.41 79.6296 94.57L79.3696 94.23C79.7696 93.89 80.2196 93.73 80.6896 93.73C81.0996 93.73 81.4296 93.84 81.6596 94.05C81.8896 94.26 82.0096 94.55 82.0096 94.9C82.0096 95.18 81.9296 95.45 81.7796 95.73C81.6296 96.01 81.3296 96.35 80.8996 96.76L79.9396 97.7V97.72H82.1996V98.18V98.19Z" fill="#494848"/>
<path d="M82.9795 95.22C82.9795 94.95 83.0995 94.81 83.3295 94.81C83.5595 94.81 83.6995 94.95 83.6995 95.22C83.6995 95.35 83.6695 95.45 83.5995 95.52C83.5295 95.59 83.4395 95.62 83.3295 95.62C83.2295 95.62 83.1395 95.59 83.0795 95.53C83.0095 95.47 82.9795 95.36 82.9795 95.22ZM82.9795 97.87C82.9795 97.74 83.0095 97.63 83.0695 97.56C83.1295 97.49 83.2195 97.46 83.3295 97.46C83.4395 97.46 83.5395 97.5 83.5995 97.56C83.6695 97.63 83.6995 97.73 83.6995 97.87C83.6995 98.01 83.6695 98.1 83.5995 98.17C83.5295 98.24 83.4395 98.27 83.3295 98.27C83.2295 98.27 83.1395 98.24 83.0795 98.18C83.0095 98.12 82.9795 98.01 82.9795 97.87Z" fill="#494848"/>
<path d="M87.3797 95.99C87.3797 96.75 87.2597 97.32 87.0197 97.69C86.7797 98.06 86.4097 98.25 85.9197 98.25C85.4297 98.25 85.0897 98.06 84.8397 97.67C84.5897 97.28 84.4697 96.72 84.4697 95.98C84.4697 95.24 84.5897 94.65 84.8297 94.28C85.0697 93.91 85.4297 93.72 85.9197 93.72C86.4097 93.72 86.7597 93.91 87.0097 94.3C87.2597 94.69 87.3797 95.25 87.3797 95.98V95.99ZM84.9797 95.99C84.9797 96.63 85.0597 97.09 85.2097 97.39C85.3597 97.68 85.5997 97.83 85.9297 97.83C86.2597 97.83 86.4997 97.68 86.6497 97.39C86.7997 97.1 86.8697 96.63 86.8697 96C86.8697 95.37 86.7997 94.91 86.6497 94.61C86.4997 94.32 86.2597 94.17 85.9297 94.17C85.5997 94.17 85.3597 94.32 85.2097 94.6C85.0597 94.89 84.9797 95.35 84.9797 95.99Z" fill="#494848"/>
<path d="M90.9002 95.99C90.9002 96.75 90.7802 97.32 90.5402 97.69C90.3002 98.07 89.9302 98.25 89.4402 98.25C88.9502 98.25 88.6102 98.06 88.3602 97.67C88.1102 97.29 87.9902 96.72 87.9902 95.98C87.9902 95.24 88.1102 94.65 88.3502 94.28C88.5902 93.91 88.9502 93.72 89.4402 93.72C89.9302 93.72 90.2802 93.91 90.5302 94.3C90.7802 94.69 90.9002 95.25 90.9002 95.98V95.99ZM88.5002 95.99C88.5002 96.63 88.5802 97.09 88.7302 97.39C88.8802 97.68 89.1202 97.83 89.4502 97.83C89.7802 97.83 90.0202 97.68 90.1702 97.39C90.3202 97.1 90.3902 96.63 90.3902 96C90.3902 95.37 90.3202 94.91 90.1702 94.61C90.0202 94.32 89.7802 94.17 89.4502 94.17C89.1202 94.17 88.8802 94.32 88.7302 94.6C88.5802 94.89 88.5002 95.35 88.5002 95.99Z" fill="#494848"/>
<path d="M27.2899 112.22C26.8099 112.22 26.4399 112.39 26.1599 112.73C25.8899 113.07 25.7499 113.54 25.7499 114.14C25.7499 114.74 25.8799 115.24 26.1499 115.56C26.4099 115.88 26.7999 116.04 27.2999 116.04C27.5199 116.04 27.7299 116.02 27.9299 115.98C28.1299 115.94 28.3399 115.88 28.5599 115.81V116.52C28.1599 116.67 27.7099 116.75 27.1999 116.75C26.4499 116.75 25.8799 116.52 25.4799 116.07C25.0799 115.62 24.8799 114.97 24.8799 114.13C24.8799 113.6 24.9799 113.14 25.1699 112.74C25.3599 112.34 25.6399 112.04 26.0099 111.83C26.3799 111.62 26.8099 111.51 27.2999 111.51C27.8199 111.51 28.2999 111.62 28.7399 111.84L28.4399 112.53C28.2699 112.45 28.0899 112.38 27.8899 112.32C27.6899 112.26 27.4999 112.23 27.2899 112.23V112.22Z" fill="#494848"/>
<path d="M32.4596 112.82V113.46H31.2096V116.67H30.3896V113.46H29.1396V112.82H32.4697H32.4596Z" fill="#494848"/>
<path d="M36.6197 114.74C36.6197 115.37 36.4597 115.86 36.1397 116.21C35.8197 116.56 35.3697 116.74 34.7897 116.74C34.4297 116.74 34.1097 116.66 33.8297 116.5C33.5497 116.34 33.3397 116.1 33.1897 115.8C33.0397 115.5 32.9697 115.14 32.9697 114.74C32.9697 114.12 33.1297 113.63 33.4497 113.28C33.7697 112.93 34.2197 112.75 34.8097 112.75C35.3997 112.75 35.8097 112.93 36.1297 113.29C36.4597 113.65 36.6197 114.13 36.6197 114.74ZM33.8097 114.74C33.8097 115.63 34.1397 116.07 34.7997 116.07C35.4597 116.07 35.7797 115.62 35.7797 114.74C35.7797 113.86 35.4497 113.42 34.7997 113.42C34.4597 113.42 34.2097 113.53 34.0497 113.76C33.8997 113.99 33.8197 114.31 33.8197 114.74H33.8097Z" fill="#494848"/>
<path d="M38.3496 112.82V114.8C38.3496 115.03 38.3296 115.37 38.2896 115.81L40.2296 112.82H41.2296V116.68H40.4396V114.74C40.4396 114.63 40.4396 114.46 40.4596 114.22C40.4696 113.98 40.4796 113.81 40.4896 113.7L38.5596 116.68H37.5596V112.82H38.3396H38.3496Z" fill="#494848"/>
<path d="M44.6094 115.89L44.6594 115.72C44.7594 115.37 44.8394 115.11 44.9094 114.92L45.7694 112.81H46.8594V116.67H46.0994V113.56L46.0394 113.77C45.9394 114.14 45.8494 114.42 45.7694 114.6L44.9294 116.68H44.3094L43.4694 114.59C43.3494 114.29 43.2494 113.95 43.1494 113.57V116.68H42.3994V112.82H43.4794L44.3194 114.86C44.3894 115.05 44.4894 115.39 44.6094 115.89Z" fill="#494848"/>
<path d="M51.4498 114.74C51.4498 115.37 51.2898 115.86 50.9698 116.21C50.6498 116.56 50.1998 116.74 49.6198 116.74C49.2598 116.74 48.9398 116.66 48.6598 116.5C48.3798 116.34 48.1698 116.1 48.0198 115.8C47.8698 115.5 47.7998 115.14 47.7998 114.74C47.7998 114.12 47.9598 113.63 48.2798 113.28C48.5998 112.93 49.0498 112.75 49.6398 112.75C50.2298 112.75 50.6398 112.93 50.9598 113.29C51.2898 113.65 51.4498 114.13 51.4498 114.74ZM48.6398 114.74C48.6398 115.63 48.9698 116.07 49.6298 116.07C50.2898 116.07 50.6098 115.62 50.6098 114.74C50.6098 113.86 50.2798 113.42 49.6298 113.42C49.2898 113.42 49.0398 113.53 48.8798 113.76C48.7298 113.99 48.6498 114.31 48.6498 114.74H48.6398Z" fill="#494848"/>
<path d="M53.9394 116.74C53.3594 116.74 52.9094 116.57 52.6094 116.23C52.3094 115.89 52.1494 115.4 52.1494 114.76C52.1494 114.12 52.3094 113.61 52.6294 113.26C52.9494 112.91 53.4094 112.74 54.0094 112.74C54.4194 112.74 54.7794 112.82 55.1094 112.97L54.8594 113.63C54.5094 113.5 54.2294 113.43 53.9994 113.43C53.3294 113.43 52.9994 113.87 52.9994 114.76C52.9994 115.19 53.0794 115.52 53.2494 115.73C53.4194 115.95 53.6594 116.06 53.9794 116.06C54.3394 116.06 54.6894 115.97 55.0194 115.79V116.5C54.8694 116.59 54.7194 116.65 54.5494 116.68C54.3794 116.71 54.1794 116.74 53.9494 116.74H53.9394Z" fill="#494848"/>
<path d="M58.82 112.82V113.46H57.57V116.67H56.75V113.46H55.5V112.82H58.83H58.82Z" fill="#494848"/>
<path d="M60.3796 114.36H61.3496C62.4296 114.36 62.9596 114.73 62.9596 115.48C62.9596 115.87 62.8196 116.17 62.5496 116.37C62.2796 116.57 61.8696 116.67 61.3496 116.67H59.5596V112.81H60.3796V114.35V114.36ZM62.1396 115.5C62.1396 115.31 62.0696 115.17 61.9196 115.1C61.7696 115.02 61.5696 114.99 61.2996 114.99H60.3796V116.08H61.3096C61.5796 116.08 61.7796 116.03 61.9296 115.93C62.0796 115.83 62.1396 115.69 62.1396 115.5Z" fill="#494848"/>
<path d="M25.8399 53.93C25.8399 54.36 25.6999 54.71 25.4099 54.98C25.1299 55.25 24.7299 55.43 24.2299 55.5V55.53C24.8099 55.6 25.2499 55.77 25.5499 56.04C25.8499 56.31 25.9999 56.67 25.9999 57.11C25.9999 57.72 25.7599 58.2 25.2799 58.55C24.7999 58.9 24.1399 59.07 23.2899 59.07C22.4399 59.07 21.7099 58.95 21.1799 58.71V57.77C21.4699 57.91 21.7999 58.02 22.1599 58.09C22.5199 58.17 22.8499 58.2 23.1499 58.2C24.3099 58.2 24.8899 57.82 24.8899 57.06C24.8899 56.71 24.7199 56.45 24.3699 56.26C24.0199 56.07 23.5099 55.99 22.8299 55.99H22.0399V55.12H22.7799C24.0899 55.12 24.7499 54.77 24.7499 54.07C24.7499 53.79 24.6399 53.57 24.4099 53.41C24.1899 53.25 23.8699 53.17 23.4699 53.17C23.1499 53.17 22.8499 53.21 22.5599 53.3C22.2699 53.38 21.9699 53.53 21.6599 53.73L21.1699 53C21.8499 52.53 22.6399 52.3 23.5599 52.3C24.2599 52.3 24.8099 52.45 25.2099 52.75C25.6199 53.05 25.8199 53.44 25.8199 53.94L25.8399 53.93Z" fill="#494848"/>
<path d="M30.3404 58.98L30.1304 58.29H30.0904C29.8504 58.59 29.6104 58.8 29.3604 58.91C29.1204 59.02 28.8004 59.07 28.4204 59.07C27.9304 59.07 27.5504 58.94 27.2704 58.67C26.9904 58.4 26.8604 58.03 26.8604 57.55C26.8604 57.04 27.0504 56.65 27.4304 56.39C27.8104 56.13 28.3904 55.99 29.1704 55.96L30.0304 55.93V55.66C30.0304 55.34 29.9604 55.1 29.8104 54.95C29.6604 54.79 29.4304 54.71 29.1204 54.71C28.8604 54.71 28.6204 54.75 28.3804 54.82C28.1504 54.9 27.9204 54.98 27.7004 55.09L27.3604 54.33C27.6304 54.19 27.9304 54.08 28.2504 54.01C28.5704 53.94 28.8704 53.9 29.1604 53.9C29.7904 53.9 30.2704 54.04 30.6004 54.32C30.9304 54.6 31.0804 55.03 31.0804 55.62V58.98H30.3204H30.3404ZM28.7604 58.26C29.1404 58.26 29.4504 58.15 29.6904 57.94C29.9304 57.73 30.0404 57.42 30.0404 57.04V56.61L29.4004 56.64C28.9004 56.66 28.5404 56.74 28.3104 56.89C28.0804 57.04 27.9704 57.27 27.9704 57.57C27.9704 57.79 28.0404 57.96 28.1704 58.09C28.3004 58.21 28.5004 58.27 28.7704 58.27L28.7604 58.26Z" fill="#494848"/>
<path d="M35.6703 53.99H36.8303L34.7703 56.39L37.0103 58.97H35.7903L33.6303 56.44V58.97H32.5703V53.98H33.6303V56.4L35.6603 53.98L35.6703 53.99Z" fill="#494848"/>
<path d="M40.9497 58.98L40.7397 58.29H40.6997C40.4597 58.59 40.2197 58.8 39.9697 58.91C39.7297 59.02 39.4097 59.07 39.0297 59.07C38.5397 59.07 38.1597 58.94 37.8797 58.67C37.5997 58.4 37.4697 58.03 37.4697 57.55C37.4697 57.04 37.6597 56.65 38.0397 56.39C38.4197 56.13 38.9997 55.99 39.7797 55.96L40.6397 55.93V55.66C40.6397 55.34 40.5697 55.1 40.4197 54.95C40.2697 54.79 40.0397 54.71 39.7297 54.71C39.4697 54.71 39.2297 54.75 38.9897 54.82C38.7597 54.9 38.5297 54.98 38.3097 55.09L37.9697 54.33C38.2397 54.19 38.5397 54.08 38.8597 54.01C39.1797 53.94 39.4797 53.9 39.7697 53.9C40.3997 53.9 40.8797 54.04 41.2097 54.32C41.5397 54.6 41.6897 55.03 41.6897 55.62V58.98H40.9297H40.9497ZM39.3697 58.26C39.7497 58.26 40.0597 58.15 40.2997 57.94C40.5397 57.73 40.6497 57.42 40.6497 57.04V56.61L40.0097 56.64C39.5097 56.66 39.1497 56.74 38.9197 56.89C38.6897 57.04 38.5797 57.27 38.5797 57.57C38.5797 57.79 38.6497 57.96 38.7797 58.09C38.9097 58.21 39.1097 58.27 39.3797 58.27L39.3697 58.26Z" fill="#494848"/>
<path d="M44.28 55.99C44.76 55.99 45.12 55.94 45.35 55.83C45.58 55.72 45.69 55.56 45.69 55.34C45.69 54.93 45.33 54.73 44.61 54.73C44.13 54.73 43.64 54.84 43.14 55.05L42.8 54.26C43.38 54.02 44.02 53.9 44.72 53.9C45.34 53.9 45.82 54.01 46.16 54.24C46.5 54.47 46.67 54.79 46.67 55.22C46.67 55.78 46.35 56.15 45.71 56.32V56.36C46.11 56.47 46.4 56.62 46.57 56.82C46.74 57.02 46.83 57.27 46.83 57.57C46.83 58.03 46.63 58.39 46.23 58.66C45.83 58.93 45.27 59.07 44.55 59.07C43.77 59.07 43.17 58.97 42.75 58.76V57.84C43.3 58.1 43.87 58.23 44.46 58.23C44.88 58.23 45.21 58.17 45.44 58.05C45.67 57.93 45.78 57.75 45.78 57.51C45.78 57.27 45.66 57.08 45.43 56.96C45.2 56.84 44.84 56.78 44.36 56.78H43.75V55.98H44.28V55.99Z" fill="#494848"/>
<path d="M49.6201 53.99H50.7701L51.7801 56.82C51.9301 57.22 52.0401 57.6 52.0901 57.96H52.1301C52.1601 57.79 52.2101 57.59 52.2801 57.36C52.3501 57.12 52.7301 56 53.4301 54H54.5801L52.4501 59.65C52.0601 60.69 51.4201 61.21 50.5101 61.21C50.2801 61.21 50.0501 61.18 49.8201 61.13V60.29C49.9801 60.33 50.1601 60.34 50.3701 60.34C50.8801 60.34 51.2401 60.04 51.4501 59.45L51.6401 58.98L49.6401 53.99H49.6201Z" fill="#494848"/>
<path d="M55.04 55.99C55.04 54.88 55.23 54.02 55.61 53.42C55.99 52.82 56.59 52.44 57.41 52.27C58.03 52.14 58.75 52.02 59.56 51.9L59.71 52.83C58.72 52.98 58 53.1 57.55 53.18C57.08 53.27 56.74 53.46 56.53 53.76C56.32 54.06 56.2 54.51 56.17 55.12H56.24C56.41 54.87 56.64 54.68 56.91 54.54C57.19 54.4 57.48 54.33 57.8 54.33C58.41 54.33 58.89 54.52 59.23 54.91C59.57 55.3 59.74 55.84 59.74 56.54C59.74 57.34 59.53 57.96 59.12 58.4C58.7 58.84 58.13 59.06 57.39 59.06C56.65 59.06 56.09 58.79 55.67 58.25C55.25 57.71 55.05 56.95 55.05 55.98L55.04 55.99ZM57.45 58.21C58.24 58.21 58.63 57.69 58.63 56.66C58.63 55.63 58.27 55.16 57.56 55.16C57.36 55.16 57.18 55.2 56.99 55.29C56.81 55.37 56.64 55.49 56.48 55.62C56.33 55.76 56.21 55.9 56.12 56.05C56.12 56.76 56.23 57.3 56.46 57.66C56.69 58.03 57.01 58.21 57.44 58.21H57.45Z" fill="#494848"/>
<path d="M65.3697 56.48C65.3697 57.29 65.1596 57.93 64.7396 58.39C64.3196 58.85 63.7396 59.07 62.9996 59.07C62.5296 59.07 62.1196 58.97 61.7596 58.75C61.3996 58.54 61.1296 58.24 60.9296 57.84C60.7296 57.44 60.6396 56.99 60.6396 56.47C60.6396 55.66 60.8496 55.03 61.2596 54.58C61.6796 54.13 62.2596 53.9 63.0096 53.9C63.7596 53.9 64.2997 54.13 64.7197 54.6C65.1397 55.06 65.3496 55.69 65.3496 56.48H65.3697ZM61.7397 56.48C61.7397 57.63 62.1696 58.21 63.0196 58.21C63.8696 58.21 64.2796 57.63 64.2796 56.48C64.2796 55.33 63.8596 54.77 63.0096 54.77C62.5696 54.77 62.2397 54.92 62.0396 55.21C61.8396 55.5 61.7397 55.93 61.7397 56.48Z" fill="#494848"/>
<path d="M69.1199 59.07C68.4899 59.07 67.9998 58.84 67.6498 58.39H67.5898C67.6298 58.81 67.6498 59.07 67.6498 59.16V61.2H66.5898V53.99H67.4498C67.4698 54.08 67.5198 54.31 67.5998 54.66H67.6498C67.9798 54.16 68.4798 53.9 69.1398 53.9C69.7598 53.9 70.2498 54.13 70.5898 54.58C70.9298 55.03 71.1098 55.66 71.1098 56.48C71.1098 57.3 70.9298 57.93 70.5798 58.39C70.2298 58.85 69.7399 59.07 69.1199 59.07ZM68.8598 54.77C68.4398 54.77 68.1298 54.89 67.9398 55.14C67.7498 55.39 67.6498 55.78 67.6498 56.32V56.48C67.6498 57.09 67.7498 57.53 67.9398 57.8C68.1298 58.07 68.4498 58.21 68.8798 58.21C69.2498 58.21 69.5299 58.06 69.7299 57.76C69.9299 57.46 70.0298 57.03 70.0298 56.47C70.0298 55.91 69.9299 55.49 69.7299 55.2C69.5299 54.91 69.2398 54.77 68.8598 54.77Z" fill="#494848"/>
<path d="M75.4301 53.99H76.5901L74.5301 56.39L76.7701 58.97H75.5501L73.3901 56.44V58.97H72.3301V53.98H73.3901V56.4L75.4201 53.98L75.4301 53.99Z" fill="#494848"/>
<path d="M78.6098 53.99V56.55C78.6098 56.85 78.5898 57.29 78.5398 57.86L81.0398 53.99H82.3298V58.98H81.3098V56.47C81.3098 56.33 81.3098 56.11 81.3298 55.8C81.3498 55.49 81.3599 55.27 81.3699 55.12L78.8798 58.98H77.5898V53.99H78.5998H78.6098Z" fill="#494848"/>
<path d="M107.73 114.44C107.73 115.19 107.54 115.78 107.15 116.2C106.77 116.62 106.23 116.83 105.54 116.83C105.11 116.83 104.73 116.73 104.4 116.54C104.07 116.35 103.82 116.07 103.64 115.71C103.46 115.35 103.37 114.93 103.37 114.45C103.37 113.7 103.56 113.12 103.94 112.7C104.32 112.28 104.86 112.07 105.56 112.07C106.26 112.07 106.75 112.28 107.14 112.71C107.53 113.14 107.72 113.71 107.72 114.44H107.73ZM104.39 114.44C104.39 115.5 104.78 116.03 105.57 116.03C106.36 116.03 106.73 115.5 106.73 114.44C106.73 113.38 106.34 112.86 105.56 112.86C105.15 112.86 104.85 113 104.67 113.27C104.49 113.54 104.39 113.93 104.39 114.44Z" fill="#494848"/>
<path d="M112.3 112.15V112.91H110.8V116.74H109.82V112.91H108.32V112.15H112.29H112.3Z" fill="#494848"/>
<path d="M119.19 116.75H115.07V116.01L116.64 114.43C117.1 113.96 117.41 113.62 117.56 113.42C117.71 113.22 117.82 113.04 117.89 112.86C117.96 112.68 117.99 112.5 117.99 112.3C117.99 112.03 117.91 111.81 117.74 111.65C117.57 111.49 117.35 111.41 117.06 111.41C116.83 111.41 116.6 111.45 116.39 111.54C116.17 111.63 115.92 111.78 115.64 112.01L115.11 111.37C115.45 111.08 115.78 110.88 116.09 110.76C116.41 110.64 116.75 110.58 117.11 110.58C117.67 110.58 118.13 110.73 118.47 111.02C118.81 111.31 118.98 111.71 118.98 112.21C118.98 112.48 118.93 112.75 118.83 112.99C118.73 113.24 118.58 113.49 118.38 113.75C118.18 114.01 117.84 114.37 117.36 114.81L116.31 115.83V115.87H119.19V116.73V116.75Z" fill="#494848"/>
<path d="M126.26 113.71C126.26 114.76 126.09 115.55 125.75 116.06C125.41 116.57 124.89 116.83 124.19 116.83C123.49 116.83 123 116.57 122.65 116.04C122.3 115.51 122.13 114.74 122.13 113.71C122.13 112.64 122.3 111.85 122.64 111.34C122.98 110.83 123.5 110.58 124.19 110.58C124.88 110.58 125.38 110.85 125.73 111.38C126.08 111.91 126.25 112.69 126.25 113.71H126.26ZM123.12 113.71C123.12 114.54 123.2 115.13 123.38 115.48C123.55 115.83 123.82 116.01 124.2 116.01C124.58 116.01 124.85 115.83 125.02 115.47C125.19 115.11 125.28 114.52 125.28 113.7C125.28 112.88 125.19 112.3 125.02 111.93C124.85 111.56 124.57 111.38 124.2 111.38C123.83 111.38 123.55 111.56 123.38 111.92C123.21 112.28 123.12 112.87 123.12 113.7V113.71Z" fill="#494848"/>
<path d="M131.12 113.71C131.12 114.76 130.95 115.55 130.61 116.06C130.27 116.57 129.75 116.83 129.05 116.83C128.35 116.83 127.86 116.57 127.51 116.04C127.16 115.51 126.99 114.74 126.99 113.71C126.99 112.64 127.16 111.85 127.5 111.34C127.84 110.83 128.36 110.58 129.05 110.58C129.74 110.58 130.24 110.85 130.59 111.38C130.94 111.91 131.11 112.69 131.11 113.71H131.12ZM127.98 113.71C127.98 114.54 128.06 115.13 128.24 115.48C128.41 115.83 128.68 116.01 129.06 116.01C129.44 116.01 129.71 115.83 129.88 115.47C130.05 115.11 130.14 114.52 130.14 113.7C130.14 112.88 130.05 112.3 129.88 111.93C129.71 111.56 129.43 111.38 129.06 111.38C128.69 111.38 128.41 111.56 128.24 111.92C128.07 112.28 127.98 112.87 127.98 113.7V113.71Z" fill="#494848"/>
<path d="M135.97 113.71C135.97 114.76 135.8 115.55 135.46 116.06C135.12 116.57 134.6 116.83 133.9 116.83C133.2 116.83 132.71 116.57 132.36 116.04C132.01 115.51 131.84 114.74 131.84 113.71C131.84 112.64 132.01 111.85 132.35 111.34C132.69 110.83 133.21 110.58 133.9 110.58C134.59 110.58 135.09 110.85 135.44 111.38C135.79 111.91 135.96 112.69 135.96 113.71H135.97ZM132.83 113.71C132.83 114.54 132.91 115.13 133.09 115.48C133.26 115.83 133.53 116.01 133.91 116.01C134.29 116.01 134.56 115.83 134.73 115.47C134.9 115.11 134.99 114.52 134.99 113.7C134.99 112.88 134.9 112.3 134.73 111.93C134.56 111.56 134.28 111.38 133.91 111.38C133.54 111.38 133.26 111.56 133.09 111.92C132.92 112.28 132.83 112.87 132.83 113.7V113.71Z" fill="#494848"/>
<path d="M141.58 116.83C141 116.83 140.55 116.62 140.23 116.2H140.17C140.21 116.59 140.23 116.82 140.23 116.91V118.79H139.25V112.15H140.04C140.06 112.24 140.11 112.44 140.18 112.77H140.23C140.53 112.3 140.99 112.07 141.6 112.07C142.17 112.07 142.62 112.28 142.94 112.69C143.26 113.11 143.42 113.69 143.42 114.44C143.42 115.19 143.26 115.78 142.93 116.2C142.6 116.62 142.16 116.83 141.58 116.83ZM141.34 112.87C140.95 112.87 140.67 112.98 140.49 113.21C140.31 113.44 140.22 113.8 140.22 114.3V114.45C140.22 115.01 140.31 115.41 140.49 115.66C140.67 115.91 140.96 116.04 141.36 116.04C141.7 116.04 141.96 115.9 142.14 115.62C142.32 115.34 142.41 114.95 142.41 114.44C142.41 113.93 142.32 113.53 142.14 113.27C141.96 113.01 141.69 112.87 141.34 112.87Z" fill="#494848"/>
<path d="M87.75 75.86C87.75 73.48 88.72 72.3 90.65 72.3C90.95 72.3 91.21 72.32 91.42 72.37V73.18C91.21 73.12 90.97 73.09 90.69 73.09C90.04 73.09 89.55 73.26 89.22 73.61C88.89 73.96 88.72 74.52 88.69 75.29H88.74C88.87 75.07 89.05 74.89 89.29 74.77C89.53 74.65 89.8 74.59 90.12 74.59C90.67 74.59 91.1 74.76 91.41 75.1C91.72 75.44 91.87 75.9 91.87 76.48C91.87 77.12 91.69 77.62 91.34 77.99C90.98 78.36 90.5 78.54 89.88 78.54C89.45 78.54 89.07 78.44 88.75 78.23C88.43 78.02 88.18 77.72 88.01 77.32C87.84 76.92 87.75 76.44 87.75 75.88V75.86ZM89.87 77.73C90.2 77.73 90.46 77.62 90.64 77.41C90.82 77.19 90.91 76.88 90.91 76.48C90.91 76.13 90.83 75.86 90.65 75.66C90.48 75.46 90.22 75.36 89.88 75.36C89.67 75.36 89.48 75.4 89.3 75.49C89.12 75.58 88.98 75.7 88.88 75.86C88.78 76.02 88.73 76.18 88.73 76.34C88.73 76.73 88.84 77.06 89.05 77.33C89.26 77.6 89.53 77.73 89.86 77.73H89.87Z" fill="#666666"/>
<path d="M96.7101 75.41C96.7101 76.46 96.5401 77.25 96.2001 77.76C95.8601 78.27 95.3401 78.53 94.6401 78.53C93.9401 78.53 93.4501 78.27 93.1001 77.74C92.7501 77.21 92.5801 76.44 92.5801 75.41C92.5801 74.34 92.7501 73.55 93.0901 73.04C93.4301 72.53 93.9501 72.28 94.6401 72.28C95.3301 72.28 95.8301 72.55 96.1801 73.08C96.5301 73.61 96.7001 74.39 96.7001 75.41H96.7101ZM93.5701 75.41C93.5701 76.24 93.6501 76.83 93.8301 77.18C94.0001 77.53 94.2701 77.71 94.6501 77.71C95.0301 77.71 95.3001 77.53 95.4701 77.17C95.6401 76.81 95.7301 76.22 95.7301 75.4C95.7301 74.58 95.6401 74 95.4701 73.63C95.3001 73.26 95.0201 73.08 94.6501 73.08C94.2801 73.08 94.0001 73.26 93.8301 73.62C93.6601 73.98 93.5701 74.57 93.5701 75.4V75.41Z" fill="#666666"/>
<path d="M119.14 79.29H115.45V78.73H119.14V79.29Z" fill="#666666"/>
<path d="M122.791 79.29H119.101V78.73H122.791V79.29Z" fill="#666666"/>
<path d="M126.45 79.29H122.76V78.73H126.45V79.29Z" fill="#666666"/>
<path d="M130.1 79.29H126.41V78.73H130.1V79.29Z" fill="#666666"/>
<path d="M133.42 77.03L133.47 76.83C133.58 76.42 133.68 76.1 133.76 75.88L134.79 73.37H136.09V77.97H135.19V74.26L135.11 74.51C134.99 74.96 134.88 75.28 134.79 75.49L133.78 77.97H133.04L132.03 75.48C131.89 75.12 131.76 74.71 131.65 74.26V77.97H130.76V73.37H132.05L133.05 75.81C133.14 76.03 133.26 76.44 133.4 77.04L133.42 77.03Z" fill="#666666"/>
<path d="M139.21 73.47H137.23V73.05L137.94 72.33C138.15 72.11 138.29 71.96 138.35 71.88C138.42 71.8 138.46 71.72 138.49 71.65C138.52 71.58 138.53 71.5 138.53 71.43C138.53 71.32 138.5 71.23 138.44 71.18C138.38 71.13 138.29 71.1 138.19 71.1C138.08 71.1 137.97 71.13 137.87 71.18C137.77 71.23 137.66 71.3 137.55 71.4L137.22 71.01C137.36 70.89 137.47 70.81 137.57 70.76C137.66 70.71 137.76 70.67 137.87 70.65C137.98 70.63 138.1 70.61 138.23 70.61C138.41 70.61 138.56 70.64 138.7 70.71C138.84 70.78 138.94 70.87 139.02 70.98C139.1 71.1 139.13 71.23 139.13 71.38C139.13 71.51 139.11 71.63 139.06 71.75C139.01 71.87 138.94 71.98 138.85 72.1C138.75 72.22 138.58 72.39 138.34 72.61L137.97 72.95V72.98H139.21V73.48V73.47Z" fill="#666666"/>
<path d="M153.86 80.29C153.86 80.29 157.33 90.24 158.23 103.26C158.23 103.26 158.87 105.69 157 106.19C157 106.19 154.96 106.73 152.1 104.28C149.24 101.83 148.47 100.32 144.9 101.01C141.33 101.7 139.83 97.64 144.24 95.59C148.65 93.54 150.38 91.22 150.28 89.67C150.18 88.12 147.45 87.1 146.38 86.6C145.31 86.1 143.06 83.48 146.44 81.51C149.81 79.55 153.1 77.84 153.85 80.28L153.86 80.29Z" fill="#80A67B"/>
<path d="M160.45 97.41C160.45 97.41 160.12 96.28 158.63 92.34C157.85 90.29 158.13 88.49 156.16 87.59C153.69 86.46 156.56 93.69 157.01 102.08C161.12 107.14 160.46 97.41 160.46 97.41H160.45Z" fill="#FDBE9C"/>
<path d="M226.72 134.26H6.96023C6.14838 134.26 5.49023 134.918 5.49023 135.73C5.49023 136.542 6.14838 137.2 6.96023 137.2H226.72C227.532 137.2 228.19 136.542 228.19 135.73C228.19 134.918 227.532 134.26 226.72 134.26Z" fill="#FF9615"/>
</g>
<defs>
<clipPath id="clip0_4846_15825">
<rect width="230" height="160" fill="white"/>
</clipPath>
</defs>
</svg>
