<svg width="230" height="160" viewBox="0 0 230 160" fill="none" xmlns="http://www.w3.org/2000/svg">
<g clip-path="url(#clip0_4846_15937)">
<path d="M115 152.4C166.456 152.4 208.17 149.047 208.17 144.91C208.17 140.773 166.456 137.42 115 137.42C63.5437 137.42 21.8301 140.773 21.8301 144.91C21.8301 149.047 63.5437 152.4 115 152.4Z" fill="#F0E3DA"/>
<path d="M142.249 78.46H182.149V132.17C182.149 133.77 180.849 135.07 179.249 135.07H145.139C143.539 135.07 142.239 133.77 142.239 132.17V78.46H142.249Z" fill="#FF9615"/>
<path d="M169.21 97.25H157.29C156.716 97.25 156.25 97.7156 156.25 98.29V98.31C156.25 98.8844 156.716 99.35 157.29 99.35H169.21C169.784 99.35 170.25 98.8844 170.25 98.31V98.29C170.25 97.7156 169.784 97.25 169.21 97.25Z" fill="white"/>
<path d="M169.21 112.66H157.29C156.716 112.66 156.25 113.126 156.25 113.7V113.72C156.25 114.294 156.716 114.76 157.29 114.76H169.21C169.784 114.76 170.25 114.294 170.25 113.72V113.7C170.25 113.126 169.784 112.66 169.21 112.66Z" fill="white"/>
<path d="M169.21 127.36H157.29C156.716 127.36 156.25 127.826 156.25 128.4V128.42C156.25 128.994 156.716 129.46 157.29 129.46H169.21C169.784 129.46 170.25 128.994 170.25 128.42V128.4C170.25 127.826 169.784 127.36 169.21 127.36Z" fill="white"/>
<path d="M182.15 120.36H142.25V122.46H182.15V120.36Z" fill="#FF8000"/>
<path d="M182.15 105.11H142.25V107.21H182.15V105.11Z" fill="#FF8000"/>
<path d="M169.21 83.24H157.29C156.716 83.24 156.25 83.7056 156.25 84.28V84.3C156.25 84.8744 156.716 85.34 157.29 85.34H169.21C169.784 85.34 170.25 84.8744 170.25 84.3V84.28C170.25 83.7056 169.784 83.24 169.21 83.24Z" fill="white"/>
<path d="M182.15 89.86H142.25V91.96H182.15V89.86Z" fill="#FF8000"/>
<path d="M182.18 75.66H142.23C141.467 75.66 140.85 76.2778 140.85 77.04V77.08C140.85 77.8422 141.467 78.46 142.23 78.46H182.18C182.942 78.46 183.56 77.8422 183.56 77.08V77.04C183.56 76.2778 182.942 75.66 182.18 75.66Z" fill="#7F6C6C"/>
<path d="M150.65 142.06H147.85V135.06H152.05L150.65 142.06Z" fill="#685959"/>
<path d="M149.249 142.06H146.449V135.06H150.649L149.249 142.06Z" fill="#7F6C6C"/>
<path d="M151.349 135.06H146.449V136.46H151.349V135.06Z" fill="#685959"/>
<path d="M175.86 142.06H178.66V135.06H174.46L175.86 142.06Z" fill="#685959"/>
<path d="M177.259 142.06H180.059V135.06H175.859L177.259 142.06Z" fill="#7F6C6C"/>
<path d="M175.85 136.47H180.05V135.07H175.85V136.47Z" fill="#685959"/>
<path d="M96.3093 30.53L97.7493 24.67L89.9893 22.76C89.0593 22.53 88.0793 22.76 87.3393 23.37C86.5993 23.98 85.8193 24.87 85.9093 26.08C85.9093 26.08 86.9393 41.79 87.2293 46.71C87.3393 48.63 87.1693 48.6 86.5993 49.56C86.5993 49.56 86.3493 50.18 86.1393 51.52C86.8093 52.95 85.4893 54.66 85.4893 54.66C85.8093 55.13 86.0993 55.39 86.7793 55.54C88.6493 55.93 90.4393 55.91 91.9293 55.67C92.8693 55.51 93.3693 54.77 93.6093 53.81C93.6693 53.42 93.7193 52.52 93.5193 51.39C93.4193 50.86 93.1593 50 93.0193 49.74C92.9393 49.13 92.8593 48.57 92.8093 48.16C92.5693 46.19 92.5493 43.73 92.5093 42.69C92.3593 39.1 92.5093 29.61 92.5093 29.61L96.3193 30.55L96.3093 30.53Z" fill="#FDBE9C"/>
<path d="M136.73 96.41C136.73 96.41 129.46 84.13 127.58 79.86C127.11 78.8 126.16 76.01 126.16 76.01C126.04 75.45 126.01 74.67 126.01 74.21L126.16 63.96H132.19V73.51C132.19 73.51 133.74 79.86 134.63 81.74C135.66 83.92 138.22 88.81 140.11 91.64C141.96 92.31 142.15 94.58 142.15 94.58L136.74 96.4L136.73 96.41Z" fill="#FDBE9C"/>
<path d="M126.149 63.96L132.189 63.92V65.6L126.149 65.65V63.96Z" fill="#F4937C"/>
<path d="M119.186 37.7405L116.276 36.3157C110.195 33.3379 102.852 35.8536 99.8739 41.9347L82.3706 77.6792C79.3928 83.7603 81.9085 91.104 87.9896 94.0817L90.8994 95.5066C96.9805 98.4844 104.324 95.9687 107.302 89.8876L124.805 54.143C127.783 48.062 125.267 40.7183 119.186 37.7405Z" fill="#685959"/>
<path d="M98.0394 138.84H90.8994V145.15H98.0394V138.84Z" fill="#FDBE9C"/>
<path d="M133.61 144.98L124.59 145.24V138.93H132.39L133.61 144.98Z" fill="#FDBE9C"/>
<path d="M49.3594 82.79C49.3594 82.79 52.4694 72.55 57.4194 70.79C62.5594 68.97 67.3294 70.74 72.8594 74.98C72.8594 74.98 65.8394 74.87 61.1094 77.36C56.3794 79.85 49.3594 82.79 49.3594 82.79Z" fill="#80A67B"/>
<path d="M52.5598 98.61C52.5598 98.61 52.3898 93.49 61.0698 92.15C69.7498 90.82 77.6898 91.48 80.7598 90.15C81.3498 92.24 74.6598 103.15 65.5298 102.66C56.3998 102.17 56.4698 98 52.5598 98.62V98.61Z" fill="#80A67B"/>
<path d="M106.8 99.59L123.98 141.6C123.98 141.6 129.73 142.71 133.16 140.39L118.68 100.46L106.81 99.59H106.8Z" fill="#3E3837"/>
<path d="M131.939 10.62C129.309 8.38002 122.629 4.03002 118.719 12.23C115.739 18.49 119.779 22.51 113.069 30.06C113.069 30.06 125.299 30.06 126.239 19.84C127.149 9.89002 129.769 9.91002 132.099 13.03C133.869 15.39 131.939 10.63 131.939 10.63V10.62Z" fill="#513023"/>
<path d="M128.109 36.46L120.959 31.99L127.679 23.65L133.719 26.2L128.109 36.46Z" fill="#FDBE9C"/>
<path d="M130.089 32.84C128.399 32.41 127.089 29.74 126.009 28.57C125.229 27.72 124.119 29.15 124.119 29.15L122.439 30.17L128.469 21.7L134.539 24.24L130.099 32.85L130.089 32.84Z" fill="#F4937C"/>
<path d="M125.8 13.92C126.18 13.51 126.58 11.97 126.83 11.51C129.61 6.54001 132.9 3.80001 138.48 6.15001C144.57 8.72001 140.9 11.67 138.33 17.76C135.76 23.85 135.92 28.54 129.49 27.02C122.62 25.4 122.63 17.29 125.79 13.92H125.8Z" fill="#6B4132"/>
<path d="M143.299 18.08C141.049 21.77 139.809 22.53 137.699 21.8L139.389 6.76001C143.499 8.37001 144.749 12.59 144.579 16.06C144.529 17.09 144.479 16.14 143.299 18.08Z" fill="#513023"/>
<path d="M140.529 25.78C139.889 27.29 137.109 30.23 135.849 30.93C135.309 31.23 134.739 31.64 133.489 31.52C132.349 31.41 130.729 31.02 129.899 31.87C129.449 32.33 130.049 31.32 129.669 31.08C125.599 28.46 124.419 22.56 125.969 18.87L129.119 14.15C130.819 10.11 135.409 8.15001 139.309 9.80001C143.209 11.44 145.009 16.09 143.309 20.13L140.539 25.79L140.529 25.78Z" fill="#F4937C"/>
<path d="M140.809 25.78C138.869 29.96 135.629 32.9 131.309 30.9C126.279 28.57 127.029 22.85 128.869 18.87L130.589 15.47C132.429 11.49 135.829 8.14001 139.679 9.92001C143.519 11.7 145.159 16.41 143.309 20.38L140.809 25.77V25.78Z" fill="#FDBE9C"/>
<path d="M128.009 13.35C124.579 11.08 134.959 7.40002 136.089 7.49002C136.859 7.55002 136.589 5.37002 138.769 6.26002C140.859 7.11002 142.909 8.51002 143.939 10.07C145.359 12.22 145.409 12.55 144.039 13.96C141.019 17.09 131.119 15.41 128.009 13.35Z" fill="#6B4132"/>
<path d="M131.149 15.01C130.279 16.9 129.879 17.45 129.579 17.76C129.039 18.3 128.709 17.85 128.819 17.39C128.959 16.78 129.039 15.82 127.889 14.88C127.759 14.78 131.489 14.28 131.489 14.28L131.159 15.01H131.149Z" fill="#6B4132"/>
<path d="M133.31 17.3L136.57 18.29L133.31 17.3Z" fill="#BAAFAC"/>
<path d="M133.402 17.0084L133.222 17.6016L136.484 18.5929L136.665 17.9997L133.402 17.0084Z" fill="#6B4132"/>
<path d="M142.88 21.3L140.34 19.94L142.88 21.3Z" fill="#BAAFAC"/>
<path d="M140.476 19.6703L140.184 20.2169L142.723 21.5761L143.015 21.0295L140.476 19.6703Z" fill="#6B4132"/>
<path d="M137.74 11.86C135.63 13.34 136.64 16.01 133.97 15.56C131.73 15.18 131.17 15.4 130.11 17.02C129.37 18.15 128.47 13.73 128.47 13.73C128.47 13.73 129.04 10.75 129.57 10.72C130.1 10.69 133.7 11.5 134.09 11.47C134.49 11.45 137.74 11.85 137.74 11.85V11.86Z" fill="#6B4132"/>
<path d="M136.3 25.17C137.05 25.48 137.9 25.23 138.09 24.68C138.16 24.48 138.09 24.19 137.73 24.23C137.56 24.25 137.16 24.19 136.77 24.03C136.38 23.87 136.21 23.69 136.03 23.52C135.63 23.15 135.38 23.32 135.29 23.5C135.03 24.01 135.55 24.84 136.29 25.16L136.3 25.17Z" fill="#F4937C"/>
<path d="M133.71 19.56C133.56 19.92 133.73 20.33 134.09 20.48C134.45 20.63 134.86 20.47 135.02 20.11C135.18 19.75 135 19.34 134.64 19.19C134.28 19.04 133.87 19.2 133.71 19.56Z" fill="#6B4132"/>
<path d="M139.619 22.11C139.469 22.47 139.639 22.88 139.999 23.03C140.359 23.18 140.769 23.02 140.929 22.66C141.089 22.3 140.909 21.89 140.549 21.74C140.189 21.59 139.779 21.75 139.619 22.11Z" fill="#6B4132"/>
<path d="M139.119 21.72C139.119 21.72 139.219 21.75 139.269 21.74C139.269 21.74 139.719 21.66 140.329 21.92C140.769 22.1 141.169 22.52 141.179 22.52C141.279 22.63 141.449 22.63 141.559 22.52C141.669 22.42 141.669 22.25 141.559 22.14C141.539 22.12 141.069 21.64 140.539 21.42C139.779 21.1 139.199 21.21 139.169 21.21C139.029 21.24 138.929 21.38 138.959 21.52C138.979 21.61 139.039 21.68 139.119 21.71V21.72Z" fill="#6B4132"/>
<path d="M125.079 16.51C125.499 15.23 126.459 14.5 127.509 14.76C128.559 15.02 129.219 16.46 128.799 17.74C128.379 19.02 127.209 19.78 126.179 19.44C125.149 19.1 124.659 17.79 125.069 16.51H125.079Z" fill="#F4937C"/>
<path d="M125.979 18.73C125.869 19.06 125.569 19.26 125.299 19.17C125.029 19.08 124.909 18.74 125.019 18.42C125.129 18.1 125.379 17.9 125.649 17.97C125.919 18.04 126.089 18.41 125.979 18.74V18.73Z" fill="white"/>
<path d="M132.889 19C132.889 19 132.96 19.02 132.99 19.02C132.99 19.02 133.71 19.02 134.35 19.3C134.79 19.48 135.189 19.9 135.199 19.9C135.299 20.01 135.469 20.01 135.579 19.9C135.689 19.8 135.689 19.63 135.579 19.52C135.559 19.5 135.089 19.02 134.559 18.8C133.819 18.49 133.029 18.48 132.999 18.48C132.849 18.48 132.729 18.6 132.729 18.75C132.729 18.86 132.799 18.96 132.889 19Z" fill="#6B4132"/>
<path d="M137.799 22.32C137.179 22.03 136.579 23.78 136.579 23.78L136.779 24.04C137.309 24.24 137.989 24.54 138.409 23.95C138.829 23.36 138.759 22.76 137.799 22.32Z" fill="#FDBE9C"/>
<path d="M92.5599 60.65C92.5599 60.65 87.3199 69.2 86.8099 70.74C86.2999 72.28 85.0599 77.94 86.3199 81.2C86.3199 81.2 90.0699 137.08 90.2699 138.84C90.4699 140.6 97.1399 140.57 98.6199 139.02C100.09 137.47 97.9699 91.37 97.9699 91.37L92.5699 60.65H92.5599Z" fill="#3E3837"/>
<path d="M96.2398 23.09L95.0898 32.84L105.1 36.7L111.91 27.21C111.91 27.21 101.27 23.29 96.2498 23.08L96.2398 23.09Z" fill="#FF9615"/>
<path d="M95.1602 132.6C90.0102 132.6 83.1702 130.04 77.6702 127.97C75.9302 127.32 74.4202 126.75 73.2902 126.4C67.3702 124.55 54.2902 124.53 54.1602 124.53V121.79C54.7102 121.79 67.7902 121.81 74.1102 123.79C75.3202 124.17 76.8602 124.74 78.6402 125.41C84.9102 127.76 96.5702 132.14 99.2202 128.44C103.4 122.61 93.9902 114.03 89.9802 110.37C89.5502 109.98 89.1802 109.64 88.8702 109.34C85.2402 105.91 75.8802 94.57 72.7102 89.02L72.6002 88.82C69.2902 83.02 63.1202 72.24 67.4402 63.18C71.5302 54.61 77.4302 51.95 79.1202 51.95V54.69C79.1202 54.69 79.1702 54.69 79.2002 54.69C78.2102 54.83 73.4402 56.98 69.9202 64.36C66.2202 72.12 71.9202 82.1 74.9802 87.46L75.0902 87.66C78.1002 92.93 87.3102 104.1 90.7502 107.34C91.0502 107.62 91.4102 107.95 91.8302 108.33C96.3902 112.49 107.05 122.22 101.45 130.03C100.11 131.89 97.8702 132.6 95.1602 132.6Z" fill="#8D8080"/>
<path d="M122.43 30.17C122.43 30.17 121.3 31.22 111.9 27.22L102.5 40.33L126.93 56.64L134.62 44.26C134.62 44.26 128.77 37.79 129.22 34.44L122.43 30.18V30.17Z" fill="#FDBE9C"/>
<path d="M109.56 26.4C109.56 26.4 101.36 36.29 95.0796 53.11C88.7996 69.94 85.7596 78.58 86.2396 85.48C86.6696 91.69 88.1396 95.02 92.0396 97.13C96.8596 99.74 111.11 102.93 115.91 102.4C118.94 102.06 119.53 100.44 119.89 97.36C120.25 94.28 115.49 73.88 117.55 68.23C119.61 62.58 132.69 45.78 134.62 44.25C134.62 44.25 130.91 39.11 129.93 37.29L119.72 44.89L119.33 30.05C119.33 30.05 110.8 26.81 109.56 26.39V26.4Z" fill="#685959"/>
<path d="M92.0495 97.33C92.0495 97.33 91.9995 97.33 91.9694 97.31C88.6795 95.91 86.9094 92.89 86.2394 87.53C85.2994 79.99 89.3394 68.51 89.3794 68.4C89.4194 68.3 89.5294 68.24 89.6294 68.28C89.7294 68.32 89.7894 68.43 89.7494 68.53C89.7094 68.64 85.6994 80.04 86.6294 87.49C87.2794 92.7 88.9695 95.62 92.1195 96.96C92.2195 97 92.2695 97.12 92.2194 97.22C92.1894 97.29 92.1194 97.34 92.0394 97.34L92.0495 97.33Z" fill="#FD9F00"/>
<path d="M81.5394 51.08H80.1094C79.5571 51.08 79.1094 51.5277 79.1094 52.08V54.42C79.1094 54.9723 79.5571 55.42 80.1094 55.42H81.5394C82.0917 55.42 82.5394 54.9723 82.5394 54.42V52.08C82.5394 51.5277 82.0917 51.08 81.5394 51.08Z" fill="#544545"/>
<path d="M45.3894 147.03C46.4885 147.03 47.3794 146.139 47.3794 145.04C47.3794 143.941 46.4885 143.05 45.3894 143.05C44.2904 143.05 43.3994 143.941 43.3994 145.04C43.3994 146.139 44.2904 147.03 45.3894 147.03Z" fill="#685959"/>
<path d="M35.53 147.03C36.6291 147.03 37.52 146.139 37.52 145.04C37.52 143.941 36.6291 143.05 35.53 143.05C34.431 143.05 33.54 143.941 33.54 145.04C33.54 146.139 34.431 147.03 35.53 147.03Z" fill="#685959"/>
<path d="M93.2698 54.68H97.3298C97.8098 54.68 98.2698 54.88 98.6098 55.22L176.22 136.32L178.49 134.15L100.08 52.26C99.6398 51.8 99.0398 51.54 98.3998 51.54H93.5398C93.5398 51.54 93.6698 52.21 93.6498 53.24C93.6498 53.84 93.2698 54.67 93.2598 54.68H93.2698Z" fill="#8D8080"/>
<path d="M86.1398 51.52L82.5498 51.55V54.69H85.4898C85.4898 54.69 85.8398 54.13 85.9498 53.89C86.6898 52.38 86.1398 51.53 86.1398 51.53V51.52Z" fill="#8D8080"/>
<path d="M104.559 145.06H81.0194C80.5389 145.06 80.1494 145.45 80.1494 145.93V146.16C80.1494 146.64 80.5389 147.03 81.0194 147.03H104.559C105.04 147.03 105.429 146.64 105.429 146.16V145.93C105.429 145.45 105.04 145.06 104.559 145.06Z" fill="#3E3837"/>
<path d="M54.7696 104.33C54.7696 104.33 53.6696 99.77 45.6896 100.72C37.7196 101.66 30.8796 104.19 27.8496 103.77C27.8396 105.76 36.4096 113.73 44.3296 111.07C52.2596 108.4 51.1796 104.75 54.7696 104.34V104.33Z" fill="#80A67B"/>
<path d="M142.11 145.06H118.57C118.09 145.06 117.7 145.45 117.7 145.93V146.16C117.7 146.64 118.09 147.03 118.57 147.03H142.11C142.591 147.03 142.98 146.64 142.98 146.16V145.93C142.98 145.45 142.591 145.06 142.11 145.06Z" fill="#3E3837"/>
<path d="M142.62 146.16C142.62 143.05 139.52 140.53 135.69 140.53C131.86 140.53 128.76 143.05 128.76 146.16" fill="#3E3837"/>
<path d="M94.0094 146.16C94.0094 143.05 90.9094 140.53 87.0794 140.53C83.2494 140.53 80.1494 143.05 80.1494 146.16" fill="#3E3837"/>
<path d="M53.8794 124.54C53.8594 124.19 52.0594 89.24 45.1094 65.63L45.6494 65.47C52.6194 89.15 54.4194 124.16 54.4394 124.51L53.8794 124.54Z" fill="#80A67B"/>
<path d="M118.317 69.2707L121.762 72.9078C122.938 74.1492 122.885 76.1143 121.643 77.2903L121.193 77.7166C120.576 78.3012 119.594 78.2817 119.002 77.6574L113.425 71.7697C112.84 71.1526 112.86 70.1699 113.484 69.5785L113.934 69.1521C115.175 67.9761 117.141 68.0292 118.317 69.2707Z" fill="#544545"/>
<path d="M61.8496 98.5C64.0808 98.5 65.8896 96.8345 65.8896 94.78C65.8896 92.7255 64.0808 91.06 61.8496 91.06C59.6183 91.06 57.8096 92.7255 57.8096 94.78C57.8096 96.8345 59.6183 98.5 61.8496 98.5Z" fill="#FF9615"/>
<path d="M44.44 97.34C48.41 93.95 65.47 94.78 65.47 94.78L60.5 143.94H36.9C34.45 143.94 32.46 141.95 32.46 139.5C32.46 139.5 35.86 104.67 44.45 97.34H44.44Z" fill="#FF9615"/>
<path d="M51.0701 142.43H33.0101C32.4964 142.43 32.0801 142.846 32.0801 143.36V143.6C32.0801 144.114 32.4964 144.53 33.0101 144.53H51.0701C51.5837 144.53 52.0001 144.114 52.0001 143.6V143.36C52.0001 142.846 51.5837 142.43 51.0701 142.43Z" fill="#685959"/>
<path d="M52.8093 97.34C55.6093 94.95 62.4493 94.72 66.2293 94.79C67.6893 94.82 68.8593 96.01 68.8593 97.48V143.95H45.2593C42.8093 143.95 40.8193 141.96 40.8193 139.51C40.8193 139.51 44.2193 104.68 52.8093 97.35V97.34Z" fill="#FF8000"/>
<path d="M60.1902 142.43H42.1302C41.6166 142.43 41.2002 142.846 41.2002 143.36V143.6C41.2002 144.114 41.6166 144.53 42.1302 144.53H60.1902C60.7038 144.53 61.1202 144.114 61.1202 143.6V143.36C61.1202 142.846 60.7038 142.43 60.1902 142.43Z" fill="#544545"/>
<path d="M58.29 144.08C58.29 133.02 63.08 130.92 68.98 130.92C68.98 133.52 68.98 136.81 68.98 144.08H58.29Z" fill="#544545"/>
<path d="M67.5793 147.19C71.495 147.19 74.6693 144.016 74.6693 140.1C74.6693 136.184 71.495 133.01 67.5793 133.01C63.6636 133.01 60.4893 136.184 60.4893 140.1C60.4893 144.016 63.6636 147.19 67.5793 147.19Z" fill="#685959"/>
<path d="M68.2701 147.19C71.8047 147.19 74.6701 144.016 74.6701 140.1C74.6701 136.184 71.8047 133.01 68.2701 133.01C64.7355 133.01 61.8701 136.184 61.8701 140.1C61.8701 144.016 64.7355 147.19 68.2701 147.19Z" fill="#7F6C6C"/>
<path d="M68.8594 144.31C71.0685 144.31 72.8594 142.425 72.8594 140.1C72.8594 137.775 71.0685 135.89 68.8594 135.89C66.6502 135.89 64.8594 137.775 64.8594 140.1C64.8594 142.425 66.6502 144.31 68.8594 144.31Z" fill="#D8C7C7"/>
<path d="M69.1001 141.7C69.9395 141.7 70.6201 140.984 70.6201 140.1C70.6201 139.216 69.9395 138.5 69.1001 138.5C68.2606 138.5 67.5801 139.216 67.5801 140.1C67.5801 140.984 68.2606 141.7 69.1001 141.7Z" fill="#FF9615"/>
<path d="M42.1601 109.05C43.4201 109.26 44.6801 108 44.9701 106.23C45.2601 104.46 44.4901 102.86 43.2301 102.65L42.4101 102.51L41.3301 108.91L42.1501 109.05H42.1601Z" fill="#7F6C6C"/>
<path d="M44.1555 106.092C44.4526 104.327 43.6737 102.725 42.4156 102.513C41.1576 102.301 39.8968 103.56 39.5996 105.324C39.3024 107.089 40.0814 108.691 41.3394 108.903C42.5975 109.115 43.8583 107.856 44.1555 106.092Z" fill="#685959"/>
<path d="M34.2997 124.14C34.2297 124.14 34.1597 124.14 34.0897 124.12C33.9697 124.1 31.1797 123.67 28.2897 122.18C24.2797 120.11 22.0497 117.01 21.8297 113.22C21.6797 110.56 22.4097 108.43 24.0097 106.89C27.5197 103.52 34.4297 103.67 41.3897 104.34C42.1397 104.41 42.6997 105.08 42.6197 105.84C42.5497 106.59 41.8697 107.15 41.1197 107.07C35.4697 106.53 28.6397 106.24 25.9097 108.86C24.8997 109.83 24.4597 111.2 24.5697 113.06C24.9597 119.89 34.3897 121.39 34.4897 121.4C35.2397 121.51 35.7597 122.21 35.6397 122.96C35.5397 123.64 34.9497 124.13 34.2797 124.13L34.2997 124.14Z" fill="#8D8080"/>
<path d="M34.2793 126.32C34.2793 126.32 34.8893 123.45 35.1693 121.37C35.3993 119.68 37.3693 122.21 37.3693 122.21L37.1293 126.96L34.2793 126.32Z" fill="#FF9615"/>
<path d="M135.329 28.23C133.159 28.23 132.099 26.52 132.089 26.5C132.029 26.41 132.059 26.29 132.159 26.23C132.249 26.17 132.369 26.2 132.429 26.3C132.479 26.39 133.799 28.5 136.629 27.63C136.729 27.6 136.839 27.66 136.879 27.76C136.909 27.86 136.849 27.97 136.749 28C136.239 28.16 135.769 28.22 135.339 28.22L135.329 28.23Z" fill="#F4937C"/>
<path d="M88.6295 115.14L87.5195 98.96L98.6895 109.83L99.0895 125.25L88.6295 115.14Z" fill="#3E3837"/>
<path d="M134.62 44.25C134.62 44.25 136.13 45.78 136.17 50.44C136.21 55.1 135.35 63.8 135.35 63.8C135.35 63.8 129.22 64.74 124.33 63.76L124.59 56.81C124.59 56.81 132.88 45.61 134.62 44.25Z" fill="#FF9615"/>
<path d="M124.43 50.929L119.841 47.7371L118.533 49.6171L123.122 52.809L124.43 50.929Z" fill="#FFFAF7"/>
<path d="M121.88 41.92L116.93 42.12L117.39 29.17L120.82 29.03L121.88 41.92Z" fill="#FF9615"/>
<path d="M123.3 46.34L121.87 41.88L129.94 37.29L131.88 40.09L123.3 46.34Z" fill="#FF9615"/>
<path d="M119.66 42.01L119.73 44.89L122.29 43.19L121.87 41.88L119.66 42.01Z" fill="#FF8000"/>
<path d="M185.05 139.99H189.55C191.31 139.99 192.75 141.42 192.75 143.19V143.61H185.05V139.99Z" fill="#544545"/>
<path d="M189.29 139.99H185.36C184.5 139.99 183.69 139.63 183.11 139L178.8 134.21C178.63 134.02 178.33 134 178.14 134.18L176.16 136.01C175.97 136.18 175.96 136.47 176.13 136.66L179.14 140.04C180.74 141.77 182.9 143.61 184.86 143.61H190.95V141.66C190.95 140.74 190.2 139.99 189.28 139.99H189.29Z" fill="#685959"/>
<path d="M187.5 142.68H196.18C197.71 142.68 198.96 143.92 198.96 145.46V146.01C198.96 146.78 198.34 147.4 197.57 147.4H187.5V142.68Z" fill="#544545"/>
<path d="M185.38 142.68H191.27C192.19 142.68 192.94 143.43 192.94 144.35V146.57C192.94 147.03 192.57 147.4 192.11 147.4H182.89C182.43 147.4 182.06 147.03 182.06 146.57V146.02C182.06 144.18 183.55 142.69 185.39 142.69L185.38 142.68Z" fill="#6F6161"/>
<path d="M92.4894 29.62L92.3594 28.02L95.5694 28.7L95.3994 30.35L92.4894 29.62Z" fill="#F4937C"/>
<path d="M124.34 63.76C124.34 63.76 125.9 64.05 126.72 64.08L126.7 53.99L124.59 56.82L124.33 63.77L124.34 63.76Z" fill="#FF8000"/>
<path d="M95.0801 32.84L103.17 35.96L104.13 34.34L95.3201 30.88L95.0801 32.84Z" fill="#FF8000"/>
<path d="M83.7395 89.24C83.6795 89.24 83.6095 89.21 83.5795 89.15C83.4895 89.02 81.4195 85.87 81.5595 81.51C81.6995 77.16 88.5195 65.29 88.8095 64.79C88.8595 64.7 88.9795 64.66 89.0795 64.72C89.1695 64.77 89.2095 64.89 89.1495 64.99C89.0795 65.11 82.0795 77.27 81.9495 81.53C81.8195 85.76 83.8895 88.91 83.9095 88.94C83.9695 89.03 83.9495 89.15 83.8595 89.21C83.8295 89.23 83.7895 89.24 83.7495 89.24H83.7395Z" fill="#FD9F00"/>
<path d="M85.7197 54.3C85.7197 54.3 86.4097 54.53 86.7897 54.44C87.1697 54.35 87.2697 54.3 87.2697 54.3C87.2697 54.3 87.5097 54.78 88.3197 54.94C89.1297 55.1 89.6597 54.65 89.7097 54.56C89.7097 54.56 89.8597 54.92 90.4097 55.04C90.9597 55.16 91.4197 54.67 91.4197 54.67C91.4197 54.67 91.9097 54.94 92.5197 54.91C93.1297 54.88 93.2497 54.68 93.2497 54.68C93.2497 54.68 92.9597 55.39 92.0497 55.63C91.1397 55.87 89.0297 55.86 88.2897 55.76C87.5497 55.66 86.3797 55.58 85.9797 55.25C85.5797 54.92 85.4697 54.68 85.4697 54.68L85.6997 54.3H85.7197Z" fill="#F2B08E"/>
<path d="M140.1 94.07C140.1 94.07 140.52 95.81 140.59 96.41C140.66 97.01 141.5 97.53 141.7 96.74C141.9 95.95 142.3 95.34 142.14 94.59C141.98 93.84 139.91 93.28 140.1 94.07Z" fill="#FDBE9C"/>
<path d="M139.19 97.1C138.99 96.92 138.85 96.68 138.79 96.42C138.76 96.31 138.75 96.2 138.72 96.1C138.7 96.08 138.69 96.07 138.67 96.05C138.48 95.92 138.28 95.8 138.11 95.64C137.89 95.44 137.73 95.17 137.55 94.92L137.62 95.01C137.62 95.01 137.64 95.04 137.62 95.01C136.71 95.14 136.26 94.56 135.95 94.23C135.16 93.41 134.33 92.53 134.33 92.53C134.33 92.53 134.08 94.43 135.89 96.73C136.68 97.73 138.93 97.96 140.01 97.73C139.7 97.58 139.46 97.32 139.2 97.09L139.19 97.1Z" fill="#FDBE9C"/>
<path d="M136.86 95.9C135.66 95.9 134.84 94.71 134.8 94.65C134.62 94.38 134.69 94.02 134.96 93.83C135.23 93.65 135.59 93.72 135.78 93.99C135.79 94.01 136.35 94.78 136.94 94.72C137.5 94.66 137.66 94.35 137.66 94.35C137.77 94.05 138.11 93.89 138.42 94.01C138.72 94.12 138.88 94.46 138.76 94.77C138.62 95.13 138.11 95.78 137.06 95.89C136.99 95.89 136.93 95.9 136.87 95.9H136.86Z" fill="#FDBE9C"/>
<path d="M137.42 97.01C136.33 97.01 135.94 96.34 135.89 96.26L136.93 95.7C136.93 95.7 136.93 95.69 136.91 95.67C136.91 95.67 137.07 95.87 137.6 95.82C138.46 95.73 139.35 95.32 139.36 95.32C139.65 95.18 140 95.32 140.14 95.61C140.28 95.9 140.14 96.25 139.85 96.39C139.81 96.41 138.77 96.88 137.72 96.99C137.61 97 137.51 97.01 137.41 97.01H137.42Z" fill="#FDBE9C"/>
<path d="M139.61 97.88C139.08 97.88 138.35 97.79 137.44 97.62H137.39C137.11 97.57 136.89 97.32 136.89 97.03C136.89 96.71 137.15 96.44 137.48 96.44C137.48 96.44 137.55 96.44 137.67 96.46C139.29 96.77 139.83 96.71 139.96 96.68C140.28 96.61 140.59 96.81 140.66 97.13C140.73 97.45 140.53 97.76 140.21 97.83C140.05 97.87 139.85 97.88 139.6 97.88H139.61Z" fill="#FDBE9C"/>
<path d="M47.5698 74.02C47.5698 74.02 39.6498 71.13 37.5198 61.59C35.3898 52.05 34.9498 44.82 32.0798 43.38C29.2098 41.94 62.4998 51.37 47.5698 74.02Z" fill="#80A67B"/>
<path d="M50.58 89.22C50.58 89.22 50.73 84.53 42.8 83.31C34.87 82.09 27.6 82.7 24.79 81.48C24.25 83.39 30.37 93.37 38.72 92.92C47.07 92.47 47.01 88.66 50.58 89.22Z" fill="#80A67B"/>
</g>
<defs>
<clipPath id="clip0_4846_15937">
<rect width="230" height="160" fill="white"/>
</clipPath>
</defs>
</svg>
