<svg width="230" height="160" viewBox="0 0 230 160" fill="none" xmlns="http://www.w3.org/2000/svg">
<g clip-path="url(#clip0_4846_16047)">
<path d="M73.8896 62.22L77.7597 67.16C81.0697 70.07 84.7596 72.05 85.9896 68.9C95.4896 44.55 91.1396 29.66 91.1396 29.66L78.9097 31.31L73.8896 62.22Z" fill="#49403E"/>
<path d="M66.5498 48.44L77.8698 57.08C77.8698 57.08 77.4098 61.18 77.9998 62.22" fill="#F4937C"/>
<path d="M75.4235 40.4156L68.1028 32.3533C64.8291 28.7479 65.0913 23.1608 68.7042 19.8803L69.5407 19.1207C73.657 15.3831 80.0277 15.6902 83.7653 19.8064L88.6592 25.1961C92.8137 29.7714 92.4718 36.8625 87.8965 41.0169C84.2911 44.2907 78.704 44.0284 75.4235 40.4156Z" fill="#49403E"/>
<path d="M66.5498 47.42V61.57L77.7998 57.77L77.5898 53L66.5498 47.42Z" fill="#F4937C"/>
<path d="M75.2501 24.9373L77.8192 24.8696C83.0674 24.7313 87.4484 28.8873 87.5868 34.1354L87.9056 46.2312C88.059 52.0492 83.4553 56.9022 77.6373 57.0556C71.5294 57.2166 66.4504 52.3888 66.2897 46.2909L65.9843 34.7049C65.8459 29.4567 70.0019 25.0757 75.2501 24.9373Z" fill="#FDBE9C"/>
<path d="M78.0923 41.6985C78.5671 41.686 78.9366 41.094 78.9177 40.3763C78.8988 39.6586 78.4986 39.0869 78.0238 39.0994C77.549 39.1119 77.1794 39.7039 77.1983 40.4216C77.2172 41.1393 77.6175 41.711 78.0923 41.6985Z" fill="#6B4132"/>
<path d="M77.7901 39.46C76.9001 39.73 76.2801 40.23 76.1401 39.77C76.0001 39.31 76.6101 38.73 77.5001 38.46C78.3901 38.19 79.2301 38.33 79.3601 38.79C79.4901 39.25 78.6801 39.19 77.7901 39.46Z" fill="#6B4132"/>
<path d="M86.2953 41.0918C86.449 40.3905 86.1975 39.7395 85.7335 39.6379C85.2696 39.5362 84.7689 40.0223 84.6152 40.7236C84.4615 41.425 84.713 42.0759 85.177 42.1776C85.6409 42.2793 86.1416 41.7931 86.2953 41.0918Z" fill="#6B4132"/>
<path d="M85.9006 40.04C86.7206 40.48 87.2406 41.08 87.4606 40.66C87.6806 40.24 87.1906 39.55 86.3706 39.12C85.5506 38.69 84.7006 38.67 84.4806 39.09C84.2606 39.51 85.0806 39.61 85.9006 40.05V40.04Z" fill="#6B4132"/>
<path d="M81.9801 50.63C80.4001 50.63 78.9701 50.15 78.8701 50.12C78.5801 50.02 78.4201 49.7 78.5201 49.41C78.6201 49.12 78.9401 48.96 79.2301 49.06C79.2601 49.07 82.7201 50.22 84.2901 48.83C84.5201 48.62 84.8801 48.65 85.0801 48.88C85.2801 49.11 85.2601 49.46 85.0301 49.67C84.1901 50.41 83.0501 50.63 81.9801 50.63Z" fill="#F4937C"/>
<path d="M81.6204 45.19C81.6204 45.19 84.8304 45.49 85.1204 44.42C85.6704 44.93 85.5503 45.82 84.3503 46.23C83.8003 46.41 82.0004 46.21 81.6104 45.2L81.6204 45.19Z" fill="#F4937C"/>
<path d="M79.2205 21.7C76.4605 16.91 70.9205 16.76 65.5405 18.04C62.2605 18.82 59.5105 20.65 58.1605 22.3C52.7505 28.93 51.8605 38.37 52.0405 44.76C52.4905 60.11 54.7205 67.03 56.1305 70.5C57.4005 73.64 59.3405 69.76 62.6405 70.5C66.0205 71.25 66.5405 61.67 66.5405 61.67L66.8005 40.29C67.2705 40.11 67.7305 39.9 68.1805 39.64L75.5605 35.38C80.3505 32.62 81.9905 26.49 79.2205 21.7Z" fill="#49403E"/>
<path d="M65 48.48C67.0711 48.48 68.75 46.801 68.75 44.73C68.75 42.6589 67.0711 40.98 65 40.98C62.9289 40.98 61.25 42.6589 61.25 44.73C61.25 46.801 62.9289 48.48 65 48.48Z" fill="#FDBE9C"/>
<path d="M65.5298 49.46C66.0931 49.46 66.5498 49.0033 66.5498 48.44C66.5498 47.8767 66.0931 47.42 65.5298 47.42C64.9664 47.42 64.5098 47.8767 64.5098 48.44C64.5098 49.0033 64.9664 49.46 65.5298 49.46Z" fill="white"/>
<path d="M97.2805 73.81C95.1705 70.44 93.3605 68.8 88.5805 67.1C88.5805 67.1 84.4405 65.69 82.9705 65.28C81.7805 64.94 77.9705 64.09 77.9705 64.09L65.8705 64.18C65.8705 64.18 64.2105 64.6 62.7005 65.03C60.2905 65.71 50.1905 69.06 50.1905 69.06C48.9405 69.33 47.8605 69.98 47.0205 70.86V70.84C47.0205 70.84 44.1005 73.57 41.5605 81.98C41.5605 82.63 41.5605 84.8 43.4905 88.44C47.3505 95.74 50.9405 97.2 50.9405 97.2L51.2705 151.42H95.9505L93.7305 85.39L99.8005 78.39L97.2705 73.83L97.2805 73.81Z" fill="#685959"/>
<path d="M66.5499 61.57C66.5499 61.57 66.2799 63.5 65.8799 64.13C65.8799 64.13 69.5899 74.08 74.8799 73.76C74.8799 73.76 78.6699 72.65 77.9999 63.73C77.9999 63.73 77.7999 61.27 77.7999 57.76L66.5499 61.56V61.57Z" fill="#FDBE9C"/>
<path d="M66.1505 41.17C66.1505 41.17 67.2505 41.75 67.3005 42.52C67.3505 43.29 68.4705 43.8 68.5505 42.52C68.6305 41.24 69.8405 39.01 70.3005 38.41C70.7605 37.82 65.7705 38.14 65.7705 38.14L66.1505 41.16V41.17Z" fill="#49403E"/>
<path d="M74.8399 38.4C74.7299 38.4 74.6199 38.36 74.5399 38.27C74.3799 38.1 74.3799 37.84 74.5399 37.68C74.5799 37.64 75.5399 36.71 77.1299 36.22C78.0799 35.93 79.2799 36.02 79.3399 36.02C79.5699 36.04 79.7399 36.24 79.7199 36.47C79.6999 36.7 79.5299 36.85 79.2699 36.86C79.2599 36.86 78.1699 36.78 77.3799 37.02C75.9999 37.45 75.1399 38.27 75.1299 38.28C75.0499 38.36 74.9399 38.4 74.8399 38.4Z" fill="#6B4132"/>
<path d="M88.1105 37.82C88.0205 37.82 87.9305 37.79 87.8505 37.73C87.8505 37.73 86.9905 37.05 86.1905 36.8C84.8105 36.38 83.6405 36.58 83.6205 36.58C83.3805 36.62 83.1805 36.47 83.1305 36.24C83.0905 36.01 83.2405 35.79 83.4705 35.75C83.5205 35.74 84.8505 35.51 86.4305 35.99C87.3805 36.28 88.3305 37.03 88.3705 37.06C88.5505 37.21 88.5805 37.47 88.4405 37.65C88.3605 37.75 88.2305 37.81 88.1105 37.81V37.82Z" fill="#6B4132"/>
<path d="M74.8802 73.76L69.3702 77.45C69.3702 77.45 62.5202 72.22 63.5802 64.74L65.8902 64.13C65.8902 64.13 67.5402 70.06 74.8902 73.76H74.8802Z" fill="#7A6868"/>
<path d="M78.0199 64.05L79.9599 64.5C79.9599 64.5 82.5699 73.32 79.7399 76.95L74.8799 73.77C74.8799 73.77 78.2899 70.42 78.0099 64.06L78.0199 64.05Z" fill="#7A6868"/>
<path d="M132.83 72.17L124.73 84.27C124.15 85.13 122.89 85.14 122.31 84.28L114.01 72.17L115.77 53.46H131.33L132.83 72.17Z" fill="#FDBE9C"/>
<path d="M115.28 58.92L115 61.9C117.29 63.78 120.22 64.9 123.41 64.9C126.6 64.9 129.72 63.69 132.01 61.84L131.75 58.86L115.28 58.91V58.92Z" fill="#F4937C"/>
<path d="M109.14 28.36H137.78V47.84C137.78 55.74 131.36 62.16 123.46 62.16C115.56 62.16 109.14 55.74 109.14 47.84V28.36Z" fill="#FDBE9C"/>
<path d="M109.141 44.76C111.278 44.76 113.011 43.0273 113.011 40.89C113.011 38.7526 111.278 37.02 109.141 37.02C107.003 37.02 105.271 38.7526 105.271 40.89C105.271 43.0273 107.003 44.76 109.141 44.76Z" fill="#FDBE9C"/>
<path d="M137.78 44.76C139.917 44.76 141.65 43.0273 141.65 40.89C141.65 38.7526 139.917 37.02 137.78 37.02C135.643 37.02 133.91 38.7526 133.91 40.89C133.91 43.0273 135.643 44.76 137.78 44.76Z" fill="#FDBE9C"/>
<path d="M109.14 37.02C109.14 37.02 109.25 31.8 113.3 31.77H109.14V37.02Z" fill="#6B4132"/>
<path d="M137.78 37.02C137.78 37.02 137.67 31.8 133.62 31.77H137.78V37.02Z" fill="#6B4132"/>
<path d="M132.2 28.34C132.2 28.34 132.28 31.4 137.63 35.58V42.94C137.63 42.94 141.64 37.97 140.67 28.7C140.67 28.7 140.12 22.56 134.52 20.68C134.52 20.68 132.58 18.77 129.12 16.81C129.12 16.81 118.6 11.17 110.28 19.51C110.28 19.51 106.31 22.82 105.4 28.79C104.87 32.3 104.91 36.43 109.33 42.44C109.56 42.75 109.33 35.39 109.33 35.39C109.33 35.39 127.42 34.58 132.2 28.34Z" fill="#6B4132"/>
<path d="M117.35 44.76C118.167 44.76 118.83 43.9272 118.83 42.9C118.83 41.8727 118.167 41.04 117.35 41.04C116.533 41.04 115.87 41.8727 115.87 42.9C115.87 43.9272 116.533 44.76 117.35 44.76Z" fill="#6B4132"/>
<path d="M130.64 44.76C131.458 44.76 132.12 43.9272 132.12 42.9C132.12 41.8727 131.458 41.04 130.64 41.04C129.823 41.04 129.16 41.8727 129.16 42.9C129.16 43.9272 129.823 44.76 130.64 44.76Z" fill="#6B4132"/>
<path d="M113.751 39.63C113.521 39.63 113.301 39.53 113.141 39.35C112.861 39.01 112.901 38.52 113.241 38.24C113.351 38.15 115.901 36.04 119.931 36.62C120.361 36.68 120.661 37.08 120.601 37.52C120.541 37.96 120.131 38.26 119.701 38.19C116.401 37.71 114.331 39.39 114.251 39.46C114.101 39.58 113.921 39.64 113.741 39.64L113.751 39.63Z" fill="#6B4132"/>
<path d="M134.63 39.63C134.45 39.63 134.27 39.57 134.12 39.45C134.03 39.37 131.95 37.71 128.67 38.18C128.24 38.24 127.83 37.94 127.77 37.51C127.71 37.08 128.01 36.67 128.44 36.61C132.47 36.04 135.03 38.14 135.13 38.23C135.47 38.51 135.51 39.01 135.23 39.35C135.07 39.54 134.85 39.63 134.62 39.63H134.63Z" fill="#6B4132"/>
<path d="M124.17 48.95C122.59 48.95 121.4 48.23 121.33 48.18C120.96 47.95 120.85 47.46 121.08 47.09C121.31 46.72 121.8 46.6 122.17 46.84C122.25 46.89 124.13 48.01 126 46.84C126.38 46.61 126.86 46.72 127.09 47.09C127.32 47.46 127.21 47.95 126.84 48.18C125.91 48.76 124.99 48.95 124.18 48.95H124.17Z" fill="#F4937C"/>
<path d="M123.76 56.16C120.35 56.16 118 54.45 117.97 54.43C117.69 54.2 117.64 53.79 117.87 53.51C118.1 53.23 118.51 53.19 118.79 53.41C118.86 53.46 123.33 56.71 128.82 53.36C129.13 53.18 129.53 53.27 129.72 53.58C129.91 53.89 129.81 54.29 129.5 54.48C127.43 55.74 125.46 56.16 123.77 56.16H123.76Z" fill="#F4937C"/>
<path d="M161.45 77.2L146.41 72.78L123.42 84.89L100.43 72.78L89.4 76.82C89.4 76.82 87.57 77.26 86.98 78.28C86.22 79.62 55.13 144.61 74.01 151.52H87.12L163.44 151.45L161.44 77.19L161.45 77.2Z" fill="#FF9615"/>
<path d="M115 61.67C115 61.67 103.98 61.86 100.42 72.82C99.9402 74.31 100.67 75.93 102.13 76.51L123.42 84.92L114.03 72.21L114.99 61.67H115Z" fill="#FCF2ED"/>
<path d="M131.99 61.67C131.99 61.67 142.86 61.85 146.42 72.81C146.9 74.3 146.17 75.92 144.71 76.5L123.42 84.91L132.81 72.2L131.99 61.67Z" fill="#FCF2ED"/>
<path d="M83.3203 105.99L104.6 101.49C105.53 101.29 106.44 101.89 106.64 102.82L112.53 130.89C112.72 131.79 112.16 132.69 111.27 132.91L93.5303 137.36L83.3203 105.99Z" fill="#80A67B"/>
<path d="M83.32 105.95L79.29 106.2L89.54 137.69L93.77 137.28L83.32 105.95Z" fill="#73956F"/>
<path d="M79.2898 106.2L64.9998 100.06C64.2998 99.76 63.5798 100.45 63.8598 101.16L76.1198 132.47L89.7898 138.31L79.2898 106.2Z" fill="#80A67B"/>
<path d="M81.2603 138.97C81.2603 138.97 73.9303 147.28 81.2603 149.75C88.5903 152.22 90.5603 142.51 90.5603 142.51C90.5603 142.51 94.8403 139.96 96.8203 137.82C98.8003 135.68 101.43 133.38 100.44 132.47C100 132.07 98.5403 133.56 97.2903 134.55C95.7203 135.8 94.3503 136.66 94.3503 136.66C94.3503 136.66 93.4703 137.02 94.5403 135.58C95.6103 134.14 100.65 129.34 100.65 129.34C100.65 129.34 101.1 128.73 100.7 128.3C100.56 128.16 100.02 128.03 99.5303 128.32C97.6103 129.44 94.6203 132.45 93.3803 133.62C92.8003 134.16 92.7303 134.07 92.6803 134.04C92.5903 133.97 93.1803 133.29 93.1803 133.29L99.4403 125.55C99.4403 125.55 99.2803 124.07 97.5503 125.22C95.8203 126.37 90.9603 132.47 90.9603 132.47C90.9603 132.47 89.4003 133.95 90.3803 130.65C91.3703 127.36 92.6003 123.98 92.6003 123.98C92.6003 123.98 91.7203 121.35 89.4803 125.13C87.2403 128.92 85.7603 132.7 84.9403 134.02C84.1203 135.34 83.4203 135.77 82.1803 135.11C80.9403 134.45 79.2903 130.25 78.2103 131.36C77.3503 132.24 78.2703 136.73 81.2403 138.95L81.2603 138.97Z" fill="#FDBE9C"/>
<path d="M81.1198 105.21C81.1198 105.21 95.0998 95.9 104.38 97.1L104.94 101.45L83.3198 105.95L79.4598 106.42L64.9998 100.06L63.5098 96.43C63.5098 96.43 73.9898 99.28 81.1298 105.21H81.1198Z" fill="#EDEFED"/>
<path d="M81.8399 105.75C81.8399 105.75 96.2699 97.28 104.53 98.26L104.94 101.45L83.3199 105.95L79.4599 106.42L64.9999 100.06L64.1299 97.94C64.1299 97.94 74.3899 100.86 81.2499 106.21L81.8399 105.75Z" fill="#E0E0E0"/>
<path d="M191.7 151.36H41.6201C41.0678 151.36 40.6201 151.808 40.6201 152.36V153.3C40.6201 153.852 41.0678 154.3 41.6201 154.3H191.7C192.252 154.3 192.7 153.852 192.7 153.3V152.36C192.7 151.808 192.252 151.36 191.7 151.36Z" fill="#FF9615"/>
<path d="M50.7998 96.98C50.7998 96.98 51.5498 94.54 52.1398 92.33C52.8798 89.64 53.0198 88.41 53.8298 83.45C53.8298 83.45 58.5998 143.65 60.8498 151.36H51.2798L50.7998 96.98Z" fill="#544848"/>
<path d="M161.71 71.45L172.24 72.19L183.39 119H160.71L152.82 111.67C152.82 111.67 147.56 79.84 161.72 71.44L161.71 71.45Z" fill="#FCF2ED"/>
<path d="M165.17 116.09L153.7 111.11L142.61 101.29L130.39 103.69C130.39 103.69 129.83 105.43 133.73 105.38C137.63 105.33 139.93 104.91 139.93 104.91L135.32 107.17C135.32 107.17 133.86 109.14 136.31 110.27C136.31 110.27 135.09 112.97 139.08 113.48C139.08 113.48 139.83 116.45 143.03 115.29C143.03 115.29 143.45 118.5 150.64 118.41L157.23 124.43L165.16 116.11L165.17 116.09Z" fill="#FDBE9C"/>
<path d="M152.43 120.02L139.28 133.8L132.01 151.72H148.43L154.88 143.83L167.1 137.31C167.1 137.31 164.22 124.8 152.81 120.03" fill="#49403E"/>
<path d="M165.17 116.09C165.17 116.09 176.92 116 184.39 119.71L186.6 117.31C186.6 117.31 196.61 129.72 187.07 139.82C187.07 139.82 160.59 150.82 157.24 124.41L165.17 116.09Z" fill="#FF9615"/>
<path d="M157.24 122.51V124.41L158.32 123.29L157.24 122.51Z" fill="#E2821A"/>
<path d="M162.4 72.81L164.54 68.26L173.23 63.42L173.5 69.07L170.18 72.95C170.18 72.95 165.68 76.54 162.41 72.81H162.4Z" fill="#FDBE9C"/>
<path d="M163.3 70.91C163.3 70.91 170.61 70.96 173.2 63.42L164.54 68.26L163.3 70.9V70.91Z" fill="#EA9C7A"/>
<path d="M160.771 49.08C158.191 54.38 158.621 55.47 158.621 59.95C158.621 64.55 161.991 68.78 163.681 68.86C168.241 69.06 168.311 68.49 171.081 66.45C171.081 66.45 172.921 64.5 173.861 62.24C173.861 62.24 176.491 62.52 176.871 60.03C177.251 57.54 174.491 57.23 173.931 58.11C173.931 58.11 174.741 53.77 172.831 50.54C170.081 45.9 163.951 42.55 160.771 49.08Z" fill="#FDBE9C"/>
<path d="M196.048 118.094L194.249 118.603C193.202 118.9 192.594 119.989 192.89 121.036L194.405 126.385C194.701 127.432 195.79 128.04 196.837 127.744L198.637 127.234C199.683 126.938 200.292 125.849 199.995 124.802L198.48 119.453C198.184 118.406 197.095 117.797 196.048 118.094Z" fill="#FDBE9C"/>
<path d="M193.23 96.92C186.09 78.31 173.49 69.07 173.49 69.07L169.29 73.47L180.17 119.49C180.17 119.49 185.05 120.9 189.16 119.26C191.08 121.68 192.86 123.26 194.18 123.46C198.64 124.14 200.2 120.02 200.2 120.02C200.2 120.02 200.39 115.53 193.25 96.92H193.23Z" fill="#685959"/>
<path d="M162.4 72.52C162.4 72.52 159.17 72.96 156.77 86.74C154.37 100.52 153.76 111.14 153.76 111.14L149.07 107.01C149.07 107.01 148.58 99.09 149.07 94.73C151.08 76.87 153.14 74.79 153.14 74.79C153.14 74.79 158.07 71.74 162.22 72.25L162.39 72.51L162.4 72.52Z" fill="#685959"/>
<path d="M163.68 70.08C163.68 70.08 160.381 69.78 157.561 72.82L156.771 86.35C156.771 86.35 158.64 73.57 162.4 72.82L163.68 70.08Z" fill="#544848"/>
<path d="M173.55 69.07C173.55 69.07 175.22 68.86 176.06 71.19C176.06 71.19 174.15 70.82 172.96 75.36C171.96 79.17 173.51 91.09 173.51 91.09C173.51 91.09 168.4 79.79 169.42 72.95C169.73 70.84 171.58 69.41 173.55 69.07Z" fill="#544848"/>
<path d="M181.45 91.1L189.15 119.27C189.15 119.27 188.19 119.66 187.24 119.82C186.42 119.96 185.3 120.04 185.3 120.04L181.45 90.77" fill="#594A4A"/>
<path d="M173.93 58.11C173.93 58.11 171.58 57.33 172.08 53.6C172.08 53.6 169.49 53.6 166.65 52.97C165.08 52.62 164.08 52.38 161.7 51.28C161.7 51.28 160.9 52.22 159.29 52.56L158.61 55.8C158.61 55.8 156.38 53.6 158.22 50.52C158.22 50.52 156.64 47.72 157.87 45.44C159.67 42.1 162.09 41.88 163.06 42.07C163.06 42.07 167.29 38.35 173.93 41.94C173.93 41.94 176.8 43.42 177.25 47.25C177.25 47.25 183.83 50.3 179.79 59.7C179.79 59.7 177.54 65.34 173.32 65.39L173.19 63.42L173.62 62.72L173.87 62.24C173.87 62.24 176.56 62.37 176.85 59.95C177.16 57.35 174.61 57.46 173.94 58.1L173.93 58.11Z" fill="#6B4132"/>
<path d="M156.47 52.36C156.47 52.36 158.35 53.2 160.39 52.19C162.43 51.18 162.24 50.07 162.24 50.07C162.24 50.07 160.56 48.17 159.1 48.54C158.09 48.8 157.44 50.9 156.47 52.35V52.36Z" fill="#6B4132"/>
<path d="M59.2501 109.2C55.5101 107.91 51.6301 106.42 48.2701 104.38L50.7401 97.04C50.7401 97.04 48.7101 95.93 46.1501 92.61C44.0101 89.84 42.4201 86.04 42.4201 86.04L35.7401 104.71C34.9601 106.89 35.5301 109.42 37.3801 111.03C45.7401 116.95 56.1301 118.94 65.9901 120.46C67.3001 120.63 69.6801 120.89 71.6401 121.08C70.3701 117.79 69.9101 116.65 67.9201 111.64C64.9901 110.95 61.9201 110.11 59.2301 109.19L59.2501 109.2Z" fill="#FDBE9C"/>
<path d="M161.529 56.8995C161.558 56.3203 161.259 55.8348 160.862 55.8152C160.465 55.7956 160.12 56.2492 160.091 56.8284C160.062 57.4076 160.361 57.893 160.758 57.9127C161.155 57.9323 161.501 57.4787 161.529 56.8995Z" fill="#6B4132"/>
<path d="M167.756 57.7061C167.784 57.1269 167.486 56.6415 167.088 56.6218C166.691 56.6022 166.346 57.0558 166.317 57.635C166.289 58.2142 166.588 58.6996 166.985 58.7193C167.382 58.7389 167.727 58.2853 167.756 57.7061Z" fill="#6B4132"/>
<path d="M159.47 55.5C159.3 55.5 159.15 55.39 159.11 55.22C159.07 55.06 159.14 54.91 159.27 54.83C160.14 54.11 161.19 54.07 161.93 54.16C162.13 54.19 162.27 54.37 162.25 54.57C162.22 54.77 162.03 54.9 161.84 54.89C161.25 54.82 160.41 54.84 159.76 55.38C159.72 55.42 159.62 55.48 159.57 55.49C159.54 55.49 159.51 55.5 159.48 55.5H159.47Z" fill="#6B4132"/>
<path d="M168.87 55.9C168.87 55.9 168.811 55.9 168.781 55.89C168.731 55.88 168.63 55.82 168.59 55.78C167.94 55.24 167.1 55.21 166.51 55.29C166.31 55.3 166.121 55.17 166.101 54.97C166.071 54.77 166.221 54.58 166.421 54.56C167.161 54.46 168.211 54.5 169.071 55.22C169.201 55.3 169.27 55.46 169.23 55.62C169.19 55.79 169.04 55.9 168.87 55.9Z" fill="#6B4132"/>
<path d="M163.01 61.38C162.32 61.38 161.81 60.99 161.58 60.7C161.45 60.54 161.48 60.31 161.64 60.18C161.8 60.06 162.03 60.08 162.16 60.24C162.22 60.31 162.76 60.94 163.67 60.45C163.85 60.35 164.07 60.42 164.17 60.6C164.27 60.78 164.2 61 164.02 61.1C163.65 61.3 163.31 61.37 163.01 61.37V61.38Z" fill="#F4937C"/>
<path d="M163.21 65.07C162.1 65.07 161.44 64.38 161.43 64.37C161.29 64.22 161.3 63.99 161.45 63.85C161.6 63.71 161.83 63.72 161.97 63.87C161.97 63.87 163.08 65.01 164.92 63.68C165.08 63.56 165.31 63.6 165.43 63.76C165.55 63.92 165.51 64.15 165.35 64.27C164.52 64.87 163.8 65.06 163.21 65.06V65.07Z" fill="#F4937C"/>
<path d="M109.39 42.26C109.39 42.26 110.54 47.98 114.31 50.25C116.9 51.81 120.53 49.98 124.68 49.9C127.37 49.85 131.58 51.63 134.27 49.96C134.27 49.96 137.1 48.95 137.64 42.93C137.64 42.93 140.83 61.56 123.46 62.16C123.46 62.16 106.23 62.48 109.39 42.26Z" fill="#6B4132"/>
<path d="M124.05 55.71C122.42 55.71 121.26 55.19 121.18 55.15C120.93 55.03 120.82 54.74 120.94 54.49C121.06 54.24 121.36 54.13 121.6 54.24C121.63 54.25 124.43 55.49 127.31 53.83C127.55 53.69 127.85 53.77 127.99 54.01C128.13 54.25 128.05 54.55 127.81 54.69C126.47 55.47 125.16 55.7 124.06 55.7L124.05 55.71Z" fill="#F4937C"/>
<path d="M177.51 47.45C177.51 47.45 178.19 46.21 177.84 44.38C177.84 44.38 176.53 45.9 175.58 45.73C174.63 45.56 177.51 47.44 177.51 47.44V47.45Z" fill="#6B4132"/>
<path d="M177 46.91C177 46.91 178.7 46.85 179.99 48.69C179.99 48.69 177.41 48.91 177.31 49.77C177.21 50.63 177 46.91 177 46.91Z" fill="#6B4132"/>
</g>
<defs>
<clipPath id="clip0_4846_16047">
<rect width="230" height="160" fill="white"/>
</clipPath>
</defs>
</svg>
